<svg xmlns="http://www.w3.org/2000/svg" viewBox="0 0 65.000001 60.000001">
  <path d="M42.274825 59.77054c-10.79448-1.5281-13.05915-14.7402-22.11196-19.7536-1.95493-1.0827-4.66781-.9825-6.63359-2.0524-3.9606098-2.1549-6.7032298-5.5165-9.7923998-8.4655-1.11906-1.0684-2.6659-1.991-3.15886-3.3352-.78372-2.1371-.55841-4.6605.63176-6.67 1.87294-3.1623 5.19448-6.7135 9.4765598-7.1831 2.47371-.2711 4.16693 2.5113 6.63357 2.822 1.79619.2264 4.22299.3755 5.37006-.7696 2.19373-2.1902-1.84009-5.9283-.3159-8.46578 1.71754-2.85911 5.61628-5.10359 9.47656-5.64387 4.33341-.60636 9.14541.90606 12.63539 3.07852 2.06403 1.28491 1.86265 4.31963 4.10652 5.38733 2.09153.9953 5.31053-.9076 7.26534.2566 1.98771 1.1837 1.0267 4.0555 2.5271 5.6438 1.56469 1.6563 5.65874 1.5736 6.31768 3.5915 1.64208 5.0284-8.51464 8.9131-8.21299 14.1096.18453 3.1789 5.53516 5.0495 6.00182 8.2093.64257 4.3509-1.30364 9.1908-4.73829 12.5703-3.71794 3.6583-9.72431 7.4845-15.47837 6.6701z" fill="#3b5554" fill-rule="evenodd" stroke="#3b5554" stroke-width=".2367566"/>
</svg>
