<svg xmlns="http://www.w3.org/2000/svg" viewBox="0 0 340 240">
  <path d="M205.77553 239.49284l24.35349-.1648s-5.92305-19.8044-4.10312-30.9399c1.65718-10.1398-9.38655-25.91712.20864-24.67309 42.0147 5.44719 140.17863-27.82333 106.27641-18.05543-33.70225 5.72648-114.45129 21.84176-110.85504 6.852 3.59624-14.98967-6.20324-46.0629-.24462-47.26377 65.58405-13.21765 51.81812-13.07748 57.81597-20.5929-24.52131 6.76767 1.17922 4.47706-59.42516 11.43842-9.30009 1.06825-13.89534-55.32481-8.64868-56.92898 28.3935-4.01552 79.01234-18.74375 74.93796-25.26629 0 0-68.69602 29.13338-80.81234 12.6945-10.888-14.77235-14.41067-32.39952-15.85326-45.16987l-3.51279-.82428c-5.73619 19.60381 22.12726 53.02712 3.88832 52.0932-45.08906-2.30877-38.99154-2.90901-81.57086-15.03021-.43187.43759 14.37661 13.55675 85.60242 21.31809 9.4551 1.03032 6.03241 38.95639 6.03241 38.95639-23.29763 10.23833-56.82925.2594-57.12083-.12179-2.28971 5.55387 4.7403 9.1361 57.41603 11.73058 7.47823 4.15144 14.65278 47.45928 6.11899 47.01804C138.11684 153.03841.4815307 104.88557.5040066 104.66179c-.151687 2.28722 131.9041534 55.86534 207.2009234 59.17706 0 0 3.50473 21.19418-3.69321 21.90182-33.43365 3.28687-33.50873 2.23297-66.3562-4.25179 26.53819 13.51696-1.21681 10.44616 67.74578 12.87406 9.54591.3361.37423 45.1299.37423 45.1299z" fill="#2c3c4c" fill-rule="evenodd" stroke="#2c3c4c" stroke-width="1.0058925"/>
</svg>
