<svg xmlns="http://www.w3.org/2000/svg" viewBox="0 0 50.000001 45.000001">
  <path d="M6.9507171 40.6108C1.6665831 37.7543.1041631 30.7437.1362361 25.231c.02009-3.476 1.493746-7.3519 4.40937-9.6572 1.140217-.9014 3.100655-.377 4.409361-1.0729 3.4908719-1.8563 5.2632609-5.5829 8.4178809-7.8688 3.54028-2.5653 7.117582-7.0596 11.624671-6.438 3.652335.5035 5.790189 4.4685 7.21534 7.511 1.861366 3.9739-.864161 8.984 1.20257 12.8761 2.468031 4.6479 11.997524 5.6013 12.42639 10.7302.425505 5.0889-5.294981 9.9001-10.42216 12.1609-5.270679 2.3239-11.946255 1.3157-17.637442 0-2.66339-.6158-4.519416-3.0864-7.21533-3.5769-2.50129-.4549-5.4328679 1.8957-7.6161699.7154z" fill="#3b5554" fill-rule="evenodd" stroke="#3b5554" stroke-width=".2715065"/>
</svg>
