<svg xmlns="http://www.w3.org/2000/svg" viewBox="0 0 70.000001 48.000001">
  <path d="M49.664604 47.8757c-3.630975-.015-6.547519-2.6406-9.537717-4.3392-3.074915-1.7466-4.875438-5.425-8.551125-5.9663-2.526363-.3722-4.677744 2.3425-7.235493 2.1695-4.011643-.2711-6.827639-3.5687-10.524443-4.8816-3.057363-1.0857-7.0499755-.6169-9.5377383-2.4407C1.8573255 30.6428-.6164817 27.6491.3314509 25.095c.9079576-2.4464 7.015175-1.614 7.8932736-4.0679 1.0965136-3.0642-5.1818595-5.4901-4.9333114-8.6782.2751063-3.5288 3.5626485-6.7361 6.9066599-8.9496C13.200007 1.4122 17.207023.3095 21.051361.145c3.611232-.1547 7.484081.5552 10.524401 2.1695 4.592069 2.4383 5.462845 8.3288 10.195549 10.5768 3.264601 1.5506 7.894557-.1614 11.182171 1.356 7.606524 3.5102 18.313695 9.4684 16.773302 16.5429-.624813 2.8695-6.513544 2.4525-9.208872 4.3392-1.723038 1.206-3.889802 2.5028-4.275543 4.3392-.337329 1.6057 2.685754 3.0902 1.97332 4.6103-1.16698 2.49-5.313815 3.8105-8.551085 3.7968z" fill="#3b5554" fill-rule="evenodd" stroke="#3b5554" stroke-width=".2483866"/>
</svg>
