<svg xmlns="http://www.w3.org/2000/svg" viewBox="0 0 50 50" fill="none">
  <path d="M25 0C11.192917 0 0 11.192917 0 25s11.192917 25 25 25 25-11.192917 25-25S38.807083 0 25 0zm-.08865 41.666667l-10.831041-2.998855-2.413646-27.001145h26.52177l-2.41625 26.996875-10.860833 3.003125z" clip-rule="evenodd" fill="#2c3c4c" fill-rule="evenodd"/>
  <path fill="#2c3c4c" d="M29.0108209 25.610255l-11.2057757.030597-.3176896-3.0164987 11.7924183-.1385861.2382672-3.2288774-12.34657.0341966-.2075811-3.0038998H32.9638893l-.2851985 3.1766825-.2906137 3.2558747-.8772563 9.7604247-6.5469312 1.8052197-.0054151.0017998-6.543321-1.8070195-.4566787-5.10429h3.205776l.2382671 2.6475355 3.5577616.9575043.001805-.0017998 3.5631768-.9575043z"/>
</svg>
