<svg xmlns="http://www.w3.org/2000/svg" viewBox="0 0 37 45.000001">
  <path d="M.4338345 31.7162c-1.393538-3.959 2.5849263-8.0346 2.9624857-12.1787.2597396-2.8509-1.8200573-5.979-.4937693-8.5702C5.6908769 5.519 12.121138.2862 18.702618.1417 24.863379.0066 31.0171 4.6922 34.008916 9.6141c4.157984 6.8402 3.114625 15.8763.987488 23.4552-.715029 2.5479-1.715357 5.9264-4.443753 6.7661-3.359725 1.034-6.331311-3.5135-9.875036-3.6086-1.560678-.042-3.786824.058-4.443743 1.3532-1.118769 2.2037 4.973242 5.1766 2.962475 6.7661-2.732546 2.1598-6.45595-3.0241-9.3812761-4.9619-3.3970751-2.2499-8.0967682-4.0187-9.3812364-7.668z" fill="#3b5554" fill-rule="evenodd" stroke="#3b5554" stroke-width=".2775373"/>
</svg>
