<svg xmlns="http://www.w3.org/2000/svg" preserveAspectRatio="xMidYMid" viewBox="0 0 50 45">
  <g fill="#2c3c4c">
    <path d="M15.22746 16.122381l9.486388-5.611402c.237396-.140476.530025-.140476.76742 0l9.486586 5.611402c.237197.140476.383708.399955.383708.680906v11.222806c0 .280749-.146511.54043-.383708.681106l-9.486586 5.611402c-.237395.140476-.530024.140476-.76742 0l-9.486388-5.611402c-.237395-.140476-.38371-.400156-.38371-.681106V16.803287c.000195-.280951.146511-.54043.38371-.680906"/>
    <path d="M49.690762 21.494934L38.344363 1.2706473C37.932209.5393973 37.170842 0 36.346729 0H13.65354c-.824308 0-1.585872.5393973-1.998026 1.2706473L.3091157 21.450336c-.4121543.731449-.4121543 1.654552 0 2.386003l11.3463983 20.05855C12.067668 44.626138 12.829232 45 13.65354 45h22.692993c.824112 0 1.585676-.362612 1.997635-1.094063l11.346398-20.091294c.412545-.731049.412545-1.58846.000196-2.319709zm-9.39543 9.725222c0 .297321-.174705.572344-.426273.721206l-14.452848 8.54337c-.251371.148661-.566272.148661-.817643 0l-14.464025-8.54337c-.2513707-.148862-.427252-.423683-.427252-.721206V14.133214c0-.297522.1733322-.572343.424899-.721205l14.452261-8.5433706c.251371-.1488617.565879-.1488617.81725 0l14.465006 8.5433706c.251566.148862.428625.423683.428625.721205v17.086942z"/>
  </g>
</svg>
