<svg xmlns="http://www.w3.org/2000/svg" viewBox="0 0 45 38.000001">
  <path d="M22.030869 37.858389c-1.7299.08359-3.137602-1.652786-4.3695-3.16369-4.119508-5.052514-12.9970273-6.803948-15.6058005-11.951607-2.0339-4.229242-2.7565-10.244885-.6242-14.4122199 1.8122-3.5416343 6.1119-4.8492813 9.6754995-5.6243043 2.1549-.46865 4.373901.982753 6.554501.703044 2.9418-.377362 5.5452-3.9298499 8.427-3.1636749 1.8615.494952 2.8282 2.9194449 4.0575 4.5697619.8161 1.095716 1.1233 2.7299083 2.1848 3.5151733 3.4618 2.5611079 10.3377-1.370108 12.1723 2.8121299 1.5872 3.617735-2.4628 7.728824-4.6817 10.897062-1.8314 2.615065-4.551 4.255359-6.8664 6.327333-3.6008 3.222101-6.3294 9.269003-10.924 9.490992z" fill="#3b5554" fill-rule="evenodd" stroke="#3b5554" stroke-width=".275481"/>
</svg>
