<svg xmlns="http://www.w3.org/2000/svg" preserveAspectRatio="xMidYMid" viewBox="0 0 50 50">
  <path d="M49.0569421 22.772609L27.2261823.9430754c-1.2563125-1.2574338-3.2954882-1.2574338-4.5534453 0l-4.5331492 4.5332353 5.7505086 5.75062c1.3364102-.4515132 2.8686719-.1486757 3.9340684.9167416 1.0703359 1.0720007 1.3709726 2.6174592.908496 3.958283l5.5420391 5.542144c1.3407969-.4619367 2.8878711-.1629387 3.958754.9096111 1.4966034 1.4960815 1.4966034 3.9209757 0 5.4181568-1.4971505 1.4971791-3.9219981 1.4971791-5.4196973 0-1.1257442-1.1268634-1.4038887-2.780399-.8338848-4.1673066l-5.1684375-5.168536-.000586 13.6013522c.3648243.1810445.7093497.421887 1.0132774.7247249 1.4966035 1.4960834 1.4966035 3.9209776 0 5.4192544-1.4971504 1.4966303-3.9230957 1.4966303-5.4180527 0-1.4966016-1.4982768-1.4966016-3.923171 0-5.4192544.3697617-.36922.7976777-.6484675 1.2541191-.8360942V18.397924c-.4564414-.1865301-.8838086-.4641312-1.2541191-.8360946-1.1339727-1.1323488-1.4066309-2.796309-.8256543-4.1887028L15.9122392 7.703702.9434687 22.6716618c-1.2579583 1.258532-1.2579583 3.297747 0 4.5551812l21.8307605 21.8300813c1.2568613 1.2574343 3.2954883 1.2574343 4.5539941 0l21.7287188-21.7285871c1.2574102-1.2579832 1.2574102-3.2982958 0-4.5557281" fill="#2c3c4c"/>
</svg>
