<svg xmlns="http://www.w3.org/2000/svg" viewBox="0 0 50 50">
  <path d="M24.9984383-.0000014C11.1937503-.0000014 0 11.4756264 0 25.6347224c0 11.3234363 7.1625002 20.9310534 17.098438 24.3210322 1.25.2355106 1.7062501-.555915 1.7062501-1.2351915 0-.6087873-.021875-2.2204681-.034375-4.3592341-6.9546877 1.5492021-8.4218753-3.4364469-8.4218753-3.4364469-1.1359375-2.960617-2.775-3.7488405-2.775-3.7488405-2.2703126-1.5908617.171875-1.5588191.171875-1.5588191 2.5078125.1810425 3.828125 2.6418192 3.828125 2.6418192 2.2312501 3.9170638 5.8515628 2.786 7.2765628 2.129149.2265625-1.6565426.8734375-2.7860001 1.5875-3.42683-5.5515626-.647234-11.3875003-2.8452765-11.3875003-12.6675639 0-2.7988192.9734375-5.0865745 2.5734376-6.879298-.2578125-.6488297-1.115625-3.2537979.24375-6.7831596 0 0 2.1-.6888936 6.8750002 2.6273937 1.9953126-.5687341 4.1328126-.852298 6.2593752-.8635107 2.1234376.0111702 4.2625001.2947766 6.2593752.8635107 4.7718752-3.3162873 6.8671877-2.6273937 6.8671877-2.6273937 1.3640626 3.5293617.50625 6.1343299.2484375 6.7831597 1.603125 1.7927234 2.5703126 4.0804787 2.5703126 6.879298 0 9.8463192-5.8453127 12.0139256-11.4140629 12.6483405.896875.7914255 1.6968751 2.3550426 1.6968751 4.7469362 0 3.4268298-.03125 6.1904043-.03125 7.0314895 0 .6856808.45 1.4835106 1.71875 1.2319893 9.9265629-3.3963936 17.0828131-12.9975959 17.0828131-24.31783 0-14.159096-11.1937504-25.6347238-25.0015633-25.6347238" fill="#2c3c4c" fill-rule="evenodd"/>
</svg>
