<svg xmlns="http://www.w3.org/2000/svg" viewBox="0 0 50.000001 45.000001">
    <path fill="#3b5554" fill-rule="evenodd" stroke="#3b5554" stroke-width=".2769308" d="M19.138218 44.5962c-6.976472-2.2386-11.8967581-8.6537-14.9631125-14.6711-1.7994795-3.5313-.6298573-7.758-1.4963112-11.559-.5866061-2.5734-2.8940796-4.9562-2.4938386-7.5577C.8241933 6.6531 2.9611921.1608 7.6665016.1385c4.9347164-.023 3.2079884 9.9951 7.9803194 11.1144 3.092766.7253 5.284676-3.8665 8.479104-4.0012 5.212093-.2199 10.592091 2.2175 14.464328 5.3348 1.82167 1.4667 1.116061 5.2276 3.491386 5.7796 2.097588.4876 3.423274-3.7047 5.486481-3.1119 1.704297.4894 2.124119 2.8537 1.995065 4.4456-.526224 6.49-5.927143 12.1915-10.972932 16.894-3.410894 3.1786-7.843236 5.5818-12.469263 7.1133-2.204111.7296-4.770512 1.5989-6.982772.8891z"/>
</svg>
