<svg xmlns="http://www.w3.org/2000/svg" viewBox="0 0 50 50" fill="none">
  <path d="M25 0C11.192917 0 0 11.192917 0 25s11.192917 25 25 25 25-11.192917 25-25S38.807083 0 25 0zm-.08865 41.666667l-10.831041-2.998855-2.413646-27.001145h26.52177l-2.41625 26.996875-10.860833 3.003125z" clip-rule="evenodd" fill="#2c3c4c" fill-rule="evenodd"/>
  <path d="M19.8407 24.9767l-.2863-3.3474 12.3886.0037.2845-3.2293L16 18.4l.859 9.8651h11.2396l-.4009 4.2194-3.584.9902-3.6393-.9976-.2309-2.5974H17.029l.4064 5.1357L24.1137 36.8l6.6248-1.7772.9163-10.0461H19.8407z" fill="#2c3c4c"/>
</svg>
