<svg xmlns="http://www.w3.org/2000/svg" viewBox="0 0 50.000001 53.000001">
  <path d="M.7814338 45.48166c-1.6489723-4.2563 2.3653544-8.846 2.0535344-13.3125-.1645501-2.357-4.0989107-5.2446-2.0535344-6.8712 2.9816645-2.3715 7.8164554 3.8408 11.8078362 3.0062 2.58259-.5402 3.24783-3.7593 5.647181-4.724 1.39668-.5614 3.24452.1662 4.620491-.4294C33.620593 18.48636 35.211784-2.02257 46.985906.39021c3.42656.70225 2.91641 5.65235 2.56691 8.58885-.75079 6.3079-6.232261 11.5649-9.754281 17.1778-2.387261 3.8046-4.451221 7.8377-7.700752 11.1655-3.75789 3.8485-8.662941 6.822-13.347942 9.8771-3.107081 2.0261-5.837491 5.9374-9.7542418 5.5827-3.9718207-.3596-6.9825382-4.1213-8.2141654-7.3005z" fill="#3b5554" fill-rule="evenodd" stroke="#3b5554" stroke-width=".3905124"/>
</svg>
