<svg xmlns="http://www.w3.org/2000/svg" viewBox="0 0 50 50">
  <path d="M39.030833 36.780833v-9.76c0-5.229166-2.791666-7.6625-6.513333-7.6625-3.003333 0-4.349167 1.6525-5.099167 2.811667v-2.411667H21.76c.075 1.5975 0 17.0225 0 17.0225h5.658333v-9.506666c0-.5075.03667-1.015834.186667-1.379167.408333-1.016667 1.339167-2.069167 2.901667-2.069167 2.048333 0 2.866666 1.560834 2.866666 3.848334v9.1075h5.6575zM15.799167 17.435c1.9725 0 3.201666-1.308333 3.201666-2.9425-.03667-1.669167-1.229166-2.94-3.164166-2.94-1.935 0-3.200834 1.27-3.200834 2.94 0 1.634167 1.228334 2.9425 3.1275 2.9425h.03583zM25 50C11.193333 50 0 38.806667 0 25 0 11.1925 11.193333 0 25 0s25 11.1925 25 25c0 13.806667-11.193333 25-25 25zm-6.371667-13.219167v-17.0225h-5.6575v17.0225h5.6575z" clip-rule="evenodd" fill="#2c3c4c" fill-rule="evenodd"/>
</svg>
