<svg xmlns="http://www.w3.org/2000/svg" viewBox="0 0 60.000001 40.000001">
  <path d="M51.606284 35.5133c-2.141482-.023-3.348708-3.8653-5.394142-3.2705-2.626456.7635-.688838 6.0306-3.173032 7.1356-4.685665 2.0846-9.868466-3.0323-14.91321-4.1624-2.300224-.5153-4.81527-.2982-6.980651-1.1893-4.493395-1.8492-7.846492-5.5259-11.740204-8.325-2.870347-2.0635-7.090489-3.149-8.567159-6.2438-1.254939-2.63-.717651-6.0351.634584-8.6223 1.746172-3.341 5.103925-6.2972 8.884484-7.4332 4.660239-1.4001 9.896953 2.7683 14.595914 1.4869 2.601055-.7095 3.642417-4.9165 6.34605-4.7572 5.001549.2945 6.861268 6.8515 10.470982 10.1088 3.074845 2.7747 7.569347 4.4693 9.519082 8.0277.874893 1.5969-.212739 3.7421.634614 5.3518 1.621438 3.0804 8.322802 3.7207 7.932574 7.1358-.343789 3.0083-5.021157 4.7914-8.249886 4.7571z" fill="#3b5554" fill-rule="evenodd" stroke="#3b5554" stroke-width=".2554534"/>
</svg>
