<?xml version="1.0" encoding="UTF-8" standalone="no"?>
<svg
   xmlns:dc="http://purl.org/dc/elements/1.1/"
   xmlns:cc="http://creativecommons.org/ns#"
   xmlns:rdf="http://www.w3.org/1999/02/22-rdf-syntax-ns#"
   xmlns:svg="http://www.w3.org/2000/svg"
   xmlns="http://www.w3.org/2000/svg"
   xmlns:sodipodi="http://sodipodi.sourceforge.net/DTD/sodipodi-0.dtd"
   xmlns:inkscape="http://www.inkscape.org/namespaces/inkscape"
   viewBox="0 0 300 460.00001"
   id="svg5037"
   version="1.1"
   inkscape:version="0.91 r13725"
   sodipodi:docname="main-menu-stem.svg"
   width="300"
   height="460">
  <metadata
     id="metadata5045">
    <rdf:RDF>
      <cc:Work
         rdf:about="">
        <dc:format>image/svg+xml</dc:format>
        <dc:type
           rdf:resource="http://purl.org/dc/dcmitype/StillImage" />
        <dc:title></dc:title>
      </cc:Work>
    </rdf:RDF>
  </metadata>
  <defs
     id="defs5043" />
  <sodipodi:namedview
     pagecolor="#ffffff"
     bordercolor="#666666"
     borderopacity="1"
     objecttolerance="10"
     gridtolerance="10"
     guidetolerance="10"
     inkscape:pageopacity="0"
     inkscape:pageshadow="2"
     inkscape:window-width="1391"
     inkscape:window-height="876"
     id="namedview5041"
     showgrid="false"
     inkscape:zoom="32.834783"
     inkscape:cx="221.82112"
     inkscape:cy="-2.2136575"
     inkscape:window-x="49"
     inkscape:window-y="24"
     inkscape:window-maximized="1"
     inkscape:current-layer="svg5037" />
  <path
     d="m 214.01419,457.56999 c 0,0 -3.96353,-70.70251 -1.88961,-104.56469 -0.34971,-10.89456 -0.83336,-14.81873 -1.8447,-19.5972 -3.9858,-19.14696 2.28296,-50.95775 -1.89542,-52.83505 -16.52984,-7.42665 -33.98988,-7.50654 -66.87358,-27.3536 0,0 33.79961,14.0984 43.58351,16.80117 9.7839,2.70281 21.173,6.70039 23.7184,3.98825 2.5454,-2.71198 2.45242,-20.29182 1.70157,-21.88679 -2.52153,-5.35625 -43.05657,-38.1961 -52.03845,-50.55215 -10.41901,-14.33318 -31.90792,-50.03773 -31.90792,-50.03773 0,0 28.21677,43.01728 40.40679,54.18897 12.18996,11.17155 33.57767,31.44884 43.73342,37.85139 1.67318,-13.23065 -3.41596,-51.50789 -13.75272,-53.55855 -5.4846,-3.74801 -127.152961,-7.65021 -170.288734,-47.5942 47.858527,29.23742 122.639374,44.42124 169.721864,34.80689 6.23681,-3.5238 -2.61374,-17.75777 -3.35598,-29.52511 -0.74235,-11.76735 4.74093,-32.99834 -0.006,-36.98385 -4.74729,-3.98551 -20.9273,-1.3752 -30.48979,-4.75283 -6.35601,-2.2452 -17.0396,-10.018132 -17.0396,-10.018132 0,0 11.44977,6.044962 17.87702,7.289992 10.26267,1.98781 31.54779,3.87281 31.54779,0 0,0 3.67471,-23.704096 0,-34.62695 -7.76413,-23.078259 -10.98245,-42.673691 -12.61911,-68.34272848 0,0 2.83011,28.33878348 7.35473,41.91680148 2.81428,8.44537 3.72637,21.267729 12.16806,24.17167 13.90337,4.782759 39.7522,-19.241699 39.7522,-19.241699 -6.94197,13.194361 -31.09636,21.993479 -36.09933,29.29195 -5.52106,8.797391 -1.64542,20.797005 -2.35795,31.201516 -0.46569,6.79999 -1.56368,13.60044 -1.25294,20.40715 0.5133,11.24353 -1.7796,24.05785 5.13626,33.46251 3.79278,5.15769 14.44594,1.24061 21.1407,-1.01813 16.96691,-5.72436 36.60658,-13.72537 44.44088,-30.48984 -3.78506,14.66392 -20.54895,24.74744 -37.43076,31.00756 -10.99198,4.01451 -20.75647,8.52643 -23.68898,12.66794 -2.93251,4.14148 5.74035,36.99346 9.11635,41.85421 3.16245,4.55332 19.94493,-4.8426 28.55075,-10.18511 4.97194,-3.08656 12.67552,-12.22466 12.67552,-12.22466 -4.11281,14.94792 -38.44314,31.63028 -38.82939,34.57162 -0.38625,2.94134 -6.16731,69.51884 -1.55305,102.47385 1.07826,7.70093 2.81571,10.43054 4.19356,22.78626 1.3779,12.35575 -0.96251,29.4177 -0.20133,44.09939 1.05026,20.25724 6.60051,60.548 6.60051,60.548 z"
     id="path5039"
     inkscape:connector-curvature="0"
     style="fill:#2c3c4c;fill-rule:evenodd;stroke:#2c3c4c;stroke-width:4.90610361"
     sodipodi:nodetypes="cccscscsscsccccscccccscssccssssccssscsssscc" />
</svg>
