<svg xmlns="http://www.w3.org/2000/svg" viewBox="0 0 250 410.00001">
  <path d="M189.09227 407.6827s-3.96926-62.99088-1.89234-93.15968c-.35021-9.70627-.83456-13.20243-1.84737-17.45971-3.99158-17.05857 2.28628-45.39973-1.89816-47.07225-16.55381-6.61662-34.03915-6.68779-66.97052-24.37011 0 0 33.84861 12.56067 43.6467 14.96865 9.79807 2.408 21.20367 5.96957 23.75277 3.55325 2.54908-2.4162 2.45597-18.07858 1.70403-19.49957-2.52518-4.77204-43.11899-34.03001-52.11388-45.03836-10.4341-12.76985-17.80654-28.61694-17.80654-28.61694s14.11005 22.36222 26.31772 32.31539c12.20764 9.95307 33.62635 28.01867 43.79683 33.72289 1.6756-11.78756-3.42093-45.88985-13.77267-47.71685-5.49253-3.33919-127.337233-6.81579-170.5355341-42.40302C49.401203 152.95483 124.29043 166.48253 171.44116 157.91683c6.24584-3.13943-2.61753-15.8209-3.36084-26.30475-.74343-10.48387 4.74779-29.39917-.006-32.949969-4.75417-3.550807-20.95764-1.225212-30.534-4.234437-6.36522-2.00031-17.06429-8.925442-17.06429-8.925442s11.46636 5.385645 17.90293 6.494869c10.27755 1.770993 31.59352 3.450388 31.59352 0 0 0 3.68003-21.118657 0-30.850132-7.77538-20.56108-10.99837-38.019218-12.63739-60.8884906 0 0 2.8342 25.2478256 7.36539 37.3448706 2.81835 7.524219 3.73176 18.948031 12.18569 21.535243 13.92352 4.26109 39.80982-17.142995 39.80982-17.142995-6.95204 11.755236-31.14143 19.594627-36.15166 26.097038-5.52906 7.837849-1.6478 18.528643-2.36137 27.798317-.46637 6.058298-1.56595 12.117028-1.25475 18.181308.51404 10.01719-1.78218 21.43383 5.1437 29.81271 3.79828 4.59514 14.46688 1.1053 21.17133-.90707 16.99151-5.1 36.65965-12.22833 44.50531-27.16429-3.79055 13.06452-20.57874 22.04821-37.48502 27.62554-11.0079 3.57664-20.78655 7.59643-23.72332 11.28623-2.93675 3.68975 5.74867 32.95853 9.12957 37.28911 3.16703 4.05668 19.97385-4.31442 28.59213-9.07419 4.97915-2.74992 12.6939-10.89133 12.6939-10.89133-4.11878 13.31754-38.49886 28.18032-38.88568 30.80086-.3868 2.62052-6.17625 61.93631-1.5553 91.29687 1.07983 6.86097 2.81979 9.29288 4.19964 20.30094 1.3799 11.00809-.9639 26.20906-.20162 39.28941 1.05179 18.04782 6.61007 53.94396 6.61007 53.94396z" fill="#2c3c4c" fill-rule="evenodd" stroke="#2c3c4c" stroke-width="4.6342197"/>
</svg>
