<svg xmlns="http://www.w3.org/2000/svg" preserveAspectRatio="xMidYMid" viewBox="0 0 50 45">
  <path d="M41.1100352 14.5853416c-.5186875-.1805962-1.0561543-.3514694-1.6095528-.5130697.090957-.375507.1744395-.7461526.248664-1.110496 1.2184005-5.982634.4217677-10.8022855-2.298496-12.38912-2.6083926-1.521564-6.8742188.0649103-11.182498 3.857612-.414293.3647035-.8297422.7508338-1.2450118 1.1555099-.2766992-.2677434-.5529531-.526484-.828496-.773971C19.6794433.7564031 15.1536483-.9525993 12.436054.6388265c-2.6059004 1.5259754-3.3776135 6.056907-2.2808748 11.7266936.1059092.5476405.2297072 1.1068948.3697031 1.675512-.6405281.1839272-1.2588955.3800084-1.8505629.5886033C3.3807285 16.4965472 0 19.4224588 0 22.4573952c0 3.1345065 3.6292146 6.2784647 9.142901 8.1848084.4351176.1504378.8866113.2926823 1.3518998.4277234-.151032.6149823-.282395 1.2176303-.3926653 1.805423-1.045742 5.571385-.2290841 9.9952733 2.3698743 11.5116157 2.6844867 1.5659483 7.1898105-.043663 11.5768535-3.9227913.3467422-.3066347.6947304-.6318172 1.0433398-.9726631.4518496.4401466.9029864.8567073 1.3517227 1.2474278 4.2493613 3.6989839 8.4463027 5.1926393 11.0428574 3.672065 2.6818164-1.570449 3.5533867-6.32276 2.4218496-12.1047211-.086418-.441587-.1869863-.8927184-.2999277-1.3518614.3163926-.0946202.627-.1923008.9298652-.2938519C46.2705723 28.7394616 50 25.6337628 50 22.4573952c0-3.0459198-3.489752-5.9915476-8.8899648-7.8720536zm-1.2432325 14.0242987c-.2734043.0915599-.5539316.1800574-.8397968.2658542-.6327852-2.0264426-1.4868223-4.1812643-2.5319414-6.4075668.9973261-2.1732767 1.8183457-4.30055 2.4334199-6.3138473.5114785.1497166 1.007916.3076259 1.486289.474268 4.6268965 1.6112319 7.4492422 3.9934648 7.4492422 5.8290468 0 1.9552285-3.0480488 4.4933895-7.9972129 6.152245zm-2.0535703 4.1162637c.5003555 2.5567069.5718203 4.8682668.2403887 6.6753099-.297793 1.6237454-.89667 2.7063326-1.6371426 3.139908-1.5757344.9226068-4.9454258-.2766574-8.5795351-3.4400624-.4166075-.362632-.8362383-.7498436-1.2572051-1.1596514 1.4088594-1.558656 2.816918-3.37065 4.1911562-5.3830474 2.4171328-.2169675 4.7007657-.571677 6.7716914-1.055939.1019942.4162011.1925957.8243868.2706465 1.2234823zm-20.7671021 9.6557788c-1.5395106.5499798-2.7656541.565736-3.5068407.133421-1.577157-.9201766-2.232815-4.4721447-1.3384609-9.236788.1024383-.5456608.2243674-1.106175.3648973-1.6791124 2.0482306.4581512 4.3151324.7878344 6.73805.9865266 1.3834955 1.9691829 2.832226 3.7791974 4.2921713 5.3640511-.3189746.311497-.6367012.6080496-.9526504.8874967-1.939918 1.7153033-3.8839295 2.9323033-5.5971666 3.544405zM9.8337137 28.5976675c-2.4380475-.8429327-4.4514793-1.9384844-5.831592-3.133967-1.2401166-1.0743031-1.8662268-2.1408654-1.8662268-3.0063053 0-1.8417047 2.7143905-4.1908065 7.2415192-5.787454.5493039-.1937404 1.1243285-.3763173 1.7210691-.5478207.6256652 2.0587615 1.446417 4.2112424 2.4368904 6.3878501-1.0032892 2.2089282-1.8357 4.3957088-2.4675062 6.4785992-.4254168-.1236986-.8375727-.2538795-1.2341537-.3909023zm2.4176668-16.6470867c-.939655-4.8577334-.3155916-8.5222352 1.2548013-9.4417816 1.6727424-.9795952 5.3716434.4170999 9.2701698 3.9187409.2491992.2238097.499375.4580626.7502656.7004183-1.4527363 1.5779216-2.888207 3.3743413-4.2594197 5.3319112-2.3515403.2204787-4.6025114.574649-6.6721016 1.0489167-.1301172-.529455-.2453713-1.049637-.3437154-1.5582055zm21.5677406 5.3871885c-.4947461-.8644495-1.002666-1.7084623-1.5204648-2.5294281 1.5953144.2040035 3.123787.4748079 4.5591699.8062012-.4309356 1.3970553-.9680469 2.8577604-1.6002969 4.3551967-.453541-.8710212-.933248-1.7492449-1.4384082-2.6319698zm-8.7952695-8.6656499c.9852226 1.0797064 1.9718691 2.285182 2.9423183 3.5931095-.9779258-.0467245-1.9679531-.0710322-2.9661699-.0710322-.9887832 0-1.9715137.0237675-2.9433848.0696818.9714278-1.2957738 1.9666172-2.4996289 2.9672364-3.591759zm-8.8516059 8.6805945c-.4942133.8668802-.9650197 1.7403323-1.4114402 2.6154051-.6220164-1.492215-1.1541434-2.9595822-1.588816-4.3764437 1.42657-.3229307 2.9478357-.5869829 4.5330027-.7871152-.5250961.828528-1.0371983 1.678753-1.5327465 2.5479738v.00018zm1.5784031 12.9116429c-1.6377656-.1848288-3.1819039-.4352864-4.6081181-.7493043.4416146-1.4421587.9854896-2.9408561 1.6206777-4.46521.4475777.8744412.9202531 1.7482541 1.4174924 2.617025h.0000888c.5064954.8850665 1.0312354 1.7520356 1.5698592 2.5974893zm7.3322985 6.1306408c-1.0123672-1.1049146-2.0221543-2.3271364-3.0083555-3.641815.9573652.0379907 1.9334219.0574375 2.9254082.0574375 1.0191309 0 2.0266035-.0232283 3.0182344-.0678811-.9736524 1.3383574-1.9567403 2.562468-2.9352871 3.6522586zM35.2779102 24.972148c.6682949 1.5408292 1.2316601 3.031695 1.6789707 4.449276-1.449709.3345434-3.0149395.6039974-4.6640977.8042208.519043-.8320407 1.0314121-1.6905478 1.5348828-2.5736327.5093418-.8934375.9929649-1.7882264 1.4502442-2.6798641zm-3.3004512 1.6004282c-.7815938 1.3708577-1.5840117 2.6795046-2.3986211 3.9147798-1.483709.1073141-3.016543.1625903-4.5788379.1625903-1.5559746 0-3.069498-.0488848-4.5269512-.1445857-.8474511-1.251478-1.6673129-2.5639972-2.443921-3.9209915h.0001779c-.7745612-1.3532996-1.4874457-2.7180366-2.1334028-4.0751178.6457791-1.3602343 1.3567948-2.7265005 2.1269059-4.0773712l-.000178.0002766c.772158-1.354472 1.5848106-2.660599 2.4244297-3.9042464 1.487002-.1137055 3.0118282-.173034 4.5528497-.173034H25c1.5479648 0 3.074748.0597787 4.5613047.1744745.8268027 1.2345545 1.6339394 2.5364502 2.409123 3.8911022.7839942 1.3698667 1.5041778 2.7270387 2.1554746 4.0581039-.6493398 1.3539318-1.3679199 2.7247896-2.1484433 4.0940252zm4.4062676-24.1280571c1.6743437.9767143 2.3254629 4.9158015 1.2734902 10.0811608-.0671055.3295927-.142666.6653073-.2247227 1.0055234-2.0743964-.484171-4.3269687-.8444631-6.6853632-1.0682729-1.3738829-1.9790866-2.7976036-3.7782972-4.226666-5.3359625.384209-.3738864.7678867-.7303976 1.149959-1.0668324 3.6913378-3.2495623 7.1413964-4.5325521 8.7133027-3.6156164zM25 17.9409572c2.4658145 0 4.46483 2.022029 4.46483 4.516438 0 2.4943162-1.9990155 4.516436-4.46483 4.516436s-4.46483-2.0221198-4.46483-4.516436c0-2.494409 1.9990155-4.516438 4.46483-4.516438z" fill="#2c3c4c"/>
</svg>
