<svg xmlns="http://www.w3.org/2000/svg" viewBox="0 0 67.000001 45.000001">
  <path d="M48.961028 34.935c-5.26691 2.0173-7.28973 8.1502-12.78782 9.7021-1.7327.489-3.77049.1665-5.48049-.3734-10.736572-3.3882-21.3874168-9.1473-27.4025228-17.1649-2.184654-2.912-4.471426-7.165-2.283552-10.0752 1.411898-1.8782 6.856391.2099 7.764043-1.8658 1.3638898-3.1188-7.479103-4.9374-6.850614-8.2094.269116-1.401 2.779345-1.7017 4.110368-2.612 1.570533-1.0742 2.728524-2.621 4.5670918-3.3585C12.125419.3651 13.96801-.0988 15.621329.2317c9.169539 1.8325 12.944139 14.4381 22.378709 14.1798 3.66425-.1006 4.60672-5.4661 8.22074-5.9705 3.56695-.4978 7.45557 1.2954 10.0476 3.3584 2.97842 2.3706 1.95049 7.0405 5.02378 9.3289 1.42331 1.0597 4.80128.021 5.48052 1.4926.74602 1.6169-2.58527 2.8237-3.19695 4.4779-.74982 2.0277 1.31161 4.7946-.45672 6.3436-3.24569 2.8431-9.84941-.1575-14.15798 1.4926z" fill="#3b5554" fill-rule="evenodd" stroke="#3b5554" stroke-width=".2427784"/>
</svg>
