<svg xmlns="http://www.w3.org/2000/svg" viewBox="0 0 50 50" preserveAspectRatio="xMidYMid">
  <path d="M47.945523 29.967751c2.739361-2.739175 2.739273-7.196328-.000088-9.935592-1.326945-1.326942-3.091387-2.057641-4.96809-2.057641-.445604 0-.884334.04062-1.312227.120711 1.864806-1.275486 3.073234-3.420269 3.073234-5.805153 0-3.873861-3.151834-7.0254816-7.025958-7.0254816-2.389804 0-4.538433 1.2131921-5.813037 3.0841279.421725-2.2241705-.239765-4.6013006-1.929572-6.2909935-1.326945-1.3269424-3.091387-2.05773-4.968089-2.05773-1.876703 0-3.641145.7307876-4.968088 2.05773-1.689896 1.6896929-2.351297 4.0669111-1.929573 6.2910817-1.274603-1.8709361-3.42332-3.0842161-5.813124-3.0842161-3.8741241 0-7.0259584 3.1516206-7.0259584 7.0254816 0 2.384972 1.2083397 4.529667 3.0731463 5.805065-.4278931-.08-.8664482-.120623-1.3121408-.120623-1.8767022 0-3.6410562.730787-4.9680885 2.057729C.7308371 21.359191 0 23.123513 0 25c0 1.876573.7308371 3.640808 2.0578696 4.967839 1.3270323 1.326855 3.0914743 2.057643 4.9680885 2.057643.4456046 0 .8841598-.04062 1.3121408-.120713-1.8648066 1.275487-3.0731463 3.42027-3.0731463 5.805154 0 3.87386 3.1518343 7.025393 7.0259584 7.025393 2.389804 0 4.538609-1.213193 5.813124-3.084128-.421724 2.224259.239765 4.601477 1.929573 6.291169C21.360639 49.269213 23.125081 50 25.001696 50c1.876702 0 3.641144-.730787 4.968089-2.057731 1.689807-1.689692 2.351209-4.066998 1.929484-6.291169 1.274602 1.870935 3.423321 3.084216 5.813125 3.084216 3.874124 0 7.025958-3.151533 7.025958-7.025393 0-2.384884-1.208428-4.529667-3.073146-5.805154.427893.08009.866535.120713 1.312139.120713 1.876703 0 3.641145-.730788 4.968178-2.057731" fill="#2c3c4c"/>
  <path d="M45.825444 22.150773c-1.573671-1.573474-4.12508-1.573474-5.698751 0h-8.247338l5.831805-5.831321c2.225466 0 4.029561-1.803972 4.029561-4.029376 0-2.225316-1.804095-4.0293759-4.029561-4.0293759-2.225555 0-4.02965 1.8040599-4.02965 4.0293759l-5.831718 5.83141V9.8747062c1.573583-1.5735635 1.573583-4.1247997-.000088-5.6983632-1.573669-1.5735632-4.125078-1.5735632-5.698748 0-1.573671 1.5735635-1.573671 4.1247997 0 5.6983632v8.2467798l-5.831718-5.83141c0-2.225316-1.804094-4.0293759-4.029649-4.0293759-2.225467 0-4.0296493 1.8040599-4.0296493 4.0293759 0 2.225404 1.8041823 4.029376 4.0296493 4.029376l5.831717 5.831321H9.8740552c-1.5737582-1.573562-4.1251675-1.573474-5.6988376.000088-1.57367 1.573564-1.57367 4.1248 0 5.698364 1.5736701 1.573562 4.1251676 1.573562 5.6988376 0h8.2472508l-5.831717 5.831322c-2.225467 0-4.0296493 1.803971-4.0296493 4.029376 0 2.225316 1.8041823 4.029375 4.0296493 4.029375 2.225555 0 4.029649-1.804059 4.029649-4.029375l5.831718-5.831323v8.246692c-1.573671 1.573564-1.573671 4.124888 0 5.698452 1.57367 1.573564 4.125167 1.573564 5.698836 0 1.573583-1.573564 1.573583-4.124888 0-5.698452V31.8786l5.831718 5.831323c0 2.225316 1.804095 4.029375 4.02965 4.029375 2.225466 0 4.029561-1.804059 4.029561-4.029375 0-2.225405-1.804095-4.029376-4.029561-4.029376l-5.831805-5.831322h8.247338c1.573671 1.573562 4.12508 1.573562 5.698751 0 1.573669-1.573564 1.573669-4.124888 0-5.698452" fill="#d6e5ed"/>
</svg>
