<svg xmlns="http://www.w3.org/2000/svg" viewBox="0 0 50 50">
  <circle cx="25" cy="25" r="25" fill="#2c3c4c"/>
  <path d="M37.4375 13.75L32.755 37.6575s-.20125 1.0925-1.55625 1.0925c-.72 0-1.09125-.3425-1.09125-.3425L19.965 29.99125 15.0025 27.49l-6.36875-1.69375S7.5 25.46875 7.5 24.53125c0-.78125 1.16625-1.15375 1.16625-1.15375l26.645-10.585c-.00125-.00125.81375-.29375 1.4075-.2925.365 0 .78125.15625.78125.625 0 .3125-.0625.625-.0625.625z" fill="#fff"/>
  <path d="M23.75 33.13125l-4.2825 4.2175s-.18625.14375-.435.15c-.08625.0025-.17875-.01125-.27375-.05375l1.205-7.45625 3.78625 3.1425z" fill="#b0bec5"/>
  <path d="M32.37125 17.745c-.21125-.275-.60125-.325-.87625-.11625L15 27.5s2.6325 7.365 3.03375 8.64c.4025 1.27625.725 1.30625.725 1.30625l1.205-7.45625 12.29-11.37c.275-.20875.32625-.6.1175-.875z" fill="#cfd8dc"/>
</svg>
