<svg xmlns="http://www.w3.org/2000/svg" viewBox="0 0 115 75.000001">
  <path d="M81.593811 74.80084c-5.96566-.023-10.75752-4.1255-15.67041-6.779-5.05217-2.7289-8.01033-8.4756-14.04948-9.3212-4.15088-.5814-7.68556 3.6597-11.888011 3.3894-6.59107-.4236-11.217876-5.5755-17.291701-7.6265-5.023208-1.6962-11.583156-.9638-15.6705853-3.813-3.977285-2.7726-8.041795-7.4496-6.484282-11.4398 1.491697-3.822 11.5259053-2.5215 12.9687293-6.3554 1.801579-4.787-8.5138543-8.5769-8.1055623-13.5578.451988-5.51286 5.8535173-10.52361 11.3478013-13.98182C21.682442 2.21126 28.265982.48858 34.582216.23144c5.933366-.24163 12.296445.86751 17.291705 3.38951 7.54479 3.80926 8.97537 13.01198 16.75134 16.52398 5.36371 2.42254 12.97074-.25203 18.37228 2.11845 12.4975 5.48406 30.089519 14.79226 27.558589 25.84496-1.02651 4.4829-10.70178 3.8316-15.130229 6.779-2.83091 1.8841-6.39086 3.9101-7.02466 6.7791-.55426 2.5087 4.41271 4.8277 3.24207 7.2027-1.91726 3.8902-8.73049 5.953-14.0495 5.9317z" fill="#3b5554" fill-rule="evenodd" stroke="#3b5554" stroke-width=".3979502"/>
</svg>
