<?xml version="1.0" encoding="UTF-8" standalone="no"?>
<!-- Created with Inkscape (http://www.inkscape.org/) -->

<svg
   xmlns:dc="http://purl.org/dc/elements/1.1/"
   xmlns:cc="http://creativecommons.org/ns#"
   xmlns:rdf="http://www.w3.org/1999/02/22-rdf-syntax-ns#"
   xmlns:svg="http://www.w3.org/2000/svg"
   xmlns="http://www.w3.org/2000/svg"
   xmlns:sodipodi="http://sodipodi.sourceforge.net/DTD/sodipodi-0.dtd"
   xmlns:inkscape="http://www.inkscape.org/namespaces/inkscape"
   width="300"
   height="500"
   viewBox="0 0 300 500"
   id="svg6296"
   version="1.1"
   inkscape:version="0.91 r13725"
   sodipodi:docname="tree-menu-items-purisa-font.svg">
  <defs
     id="defs6298" />
  <sodipodi:namedview
     id="base"
     pagecolor="#ffffff"
     bordercolor="#666666"
     borderopacity="1.0"
     inkscape:pageopacity="0.0"
     inkscape:pageshadow="2"
     inkscape:zoom="1.979899"
     inkscape:cx="129.09754"
     inkscape:cy="327.93244"
     inkscape:document-units="px"
     inkscape:current-layer="layer1"
     showgrid="false"
     units="px"
     inkscape:window-width="1391"
     inkscape:window-height="876"
     inkscape:window-x="49"
     inkscape:window-y="24"
     inkscape:window-maximized="1" />
  <metadata
     id="metadata6301">
    <rdf:RDF>
      <cc:Work
         rdf:about="">
        <dc:format>image/svg+xml</dc:format>
        <dc:type
           rdf:resource="http://purl.org/dc/dcmitype/StillImage" />
        <dc:title></dc:title>
      </cc:Work>
    </rdf:RDF>
  </metadata>
  <g
     inkscape:label="Layer 1"
     inkscape:groupmode="layer"
     id="layer1"
     transform="translate(0,-552.36216)">
    <path
       sodipodi:nodetypes="cccsczzssczcccczzacasscaaccaasacczsacsszacc"
       inkscape:connector-curvature="0"
       id="path4756"
       d="m 215.15901,1050.0389 c 0,0 -3.81323,-71.1174 -1.80251,-105.2224 -0.33905,-10.97269 -0.80796,-14.92498 -1.78849,-19.73772 -3.86434,-19.28426 2.2134,-51.32315 -1.83766,-53.2139 -16.02616,-7.47991 -32.95418,-7.56034 -64.83589,-27.54973 0,0 32.76971,14.1995 42.25549,16.92165 9.48578,2.72217 20.52784,6.74842 22.99568,4.01683 2.46783,-2.73142 2.37769,-20.43731 1.64971,-22.04373 -2.44469,-5.39464 -41.74459,-38.46996 -50.45278,-50.91461 -10.10154,-14.43596 -30.93566,-50.39652 -30.93566,-50.39652 0,0 27.35697,43.32573 39.17555,54.57753 11.81853,11.25163 32.55454,31.67433 42.40083,38.12278 1.6222,-13.32552 -3.31187,-51.8772 -13.33366,-53.94258 -5.31747,-3.77489 -123.278508,-7.70507 -165.099894,-47.93545 46.400238,29.44706 118.902454,44.73974 164.550294,35.05646 6.04677,-3.54907 -2.5341,-17.88511 -3.25371,-29.73683 -0.71974,-11.85172 4.59647,-33.23495 -0.006,-37.24904 -4.60265,-4.01407 -20.28964,-1.38504 -29.56074,-4.78691 -6.16235,-2.26129 -16.52041,-10.08996 -16.52041,-10.08996 0,0 11.1009,6.08832 17.33231,7.34227 9.94995,2.00206 30.58649,3.90057 30.58649,0 0,0 3.56275,-23.87406 0,-34.87523 -7.52755,-23.24375 -10.6478,-42.97968 -12.23459,-68.83277 0,0 2.74387,28.54197 7.13062,42.21735 2.72854,8.50593 3.61283,21.42024 11.7973,24.345 13.47971,4.81704 38.54092,-19.37968 38.54092,-19.37968 -6.73044,13.28897 -30.14884,22.15119 -34.99936,29.50199 -5.35283,8.86046 -1.59529,20.94613 -2.2861,31.42525 -0.4515,6.84872 -1.51604,13.69795 -1.21476,20.55348 0.49766,11.32414 -1.72538,24.23034 4.97975,33.70244 3.6772,5.19467 14.00576,1.2495 20.49653,-1.02543 16.44991,-5.76542 35.49115,-13.8238 43.08673,-30.70848 -3.66973,14.76907 -19.92281,24.9249 -36.29021,31.22991 -10.65705,4.04329 -20.124,8.58757 -22.96717,12.75876 -2.84315,4.17118 5.56544,37.25872 8.83857,42.15434 3.06609,4.58596 19.33719,-4.87732 27.6808,-10.25814 4.82043,-3.1087 12.28927,-12.31233 12.28927,-12.31233 -3.98748,15.0551 -37.27175,31.85708 -37.64622,34.81951 -0.37448,2.96243 -5.97939,70.0173 -1.50573,103.20862 1.0454,7.75615 2.72991,10.50533 4.06578,22.94965 1.33592,12.44435 -0.93318,29.62865 -0.19519,44.41559 1.01825,20.40243 6.36984,60.95153 6.36984,60.95153 z"
       style="fill:#2c3c4c;fill-opacity:1;fill-rule:evenodd;stroke:#2c3c4c;stroke-width:4.84805775;stroke-linecap:butt;stroke-linejoin:miter;stroke-miterlimit:4;stroke-dasharray:none;stroke-opacity:1" />
    <path
       sodipodi:nodetypes="aaaaaaaaaaaaa"
       inkscape:connector-curvature="0"
       id="path6210"
       d="m 232.09808,639.19843 c -5.39236,-2.94085 -6.98678,-10.15832 -6.95405,-15.83376 0.0205,-3.57845 1.52434,-7.5688 4.49968,-9.94209 1.16357,-0.92801 3.16416,-0.38817 4.49967,-1.10459 3.56237,-1.91111 5.37106,-5.74762 8.59029,-8.101 3.61279,-2.64098 7.26336,-7.26792 11.86276,-6.62801 3.72714,0.51844 5.90878,4.60039 7.36312,7.73275 1.89949,4.09109 -0.88186,9.24908 1.2272,13.25601 2.51858,4.7851 12.24325,5.76655 12.6809,11.04686 0.43422,5.23897 -5.40343,10.19218 -10.63562,12.51967 -5.37863,2.39255 -12.19093,1.35467 -17.99868,0 -2.71794,-0.63394 -4.61198,-3.17733 -7.36311,-3.68233 -2.55252,-0.46833 -5.54414,1.95161 -7.77216,0.73649 z"
       style="fill:#3b5554;fill-opacity:1;fill-rule:evenodd;stroke:#3b5554;stroke-width:0.27829012px;stroke-linecap:butt;stroke-linejoin:miter;stroke-opacity:1" />
    <path
       sodipodi:nodetypes="aaaaaaaaaaaa"
       inkscape:connector-curvature="0"
       id="path6222"
       d="m 263.06413,714.57772 c -1.40766,-3.94057 2.61113,-7.99713 2.99252,-12.12206 0.26237,-2.83763 -1.83851,-5.95108 -0.49877,-8.53032 2.81659,-5.42286 9.31202,-10.6313 15.96021,-10.77518 6.2232,-0.13443 12.4393,4.52936 15.46144,9.4283 4.20013,6.80839 3.1462,15.8024 0.9975,23.34614 -0.72228,2.53593 -1.73275,5.8988 -4.4888,6.73454 -3.39378,1.02908 -6.39548,-3.49713 -9.97512,-3.59173 -1.5765,-0.0415 -3.82522,0.0581 -4.48879,1.34688 -1.13011,2.1934 5.02365,5.15252 2.9925,6.73455 -2.76024,2.14975 -6.52138,-3.01006 -9.47636,-4.93877 -3.43151,-2.23954 -8.17883,-3.99996 -9.47633,-7.63235 z"
       style="fill:#3b5554;fill-opacity:1;fill-rule:evenodd;stroke:#3b5554;stroke-width:0.27829012px;stroke-linecap:butt;stroke-linejoin:miter;stroke-opacity:1" />
    <path
       sodipodi:nodetypes="aaaaaaaaaaaaaa"
       inkscape:connector-curvature="0"
       id="path6224"
       d="m 179.27305,597.39764 c -6.97628,-2.26079 -11.89643,-8.7391 -14.9627,-14.81598 -1.79943,-3.56617 -0.62984,-7.83465 -1.49627,-11.67315 -0.58659,-2.59882 -2.894,-5.00515 -2.49377,-7.63236 0.63922,-4.19628 2.77616,-10.7526 7.48134,-10.77517 4.93458,-0.0232 3.2079,10.09377 7.9801,11.22408 3.09268,0.73251 5.28453,-3.90454 8.47887,-4.04063 5.21195,-0.22204 10.5918,2.23937 14.46393,5.3875 1.82162,1.48114 1.11603,5.27914 3.49129,5.83658 2.09753,0.49238 3.42318,-3.74125 5.48633,-3.14265 1.70425,0.49437 2.12406,2.88194 1.99501,4.48952 -0.52621,6.55416 -5.92698,12.31191 -10.97263,17.06084 -3.4108,3.21002 -7.84302,5.63692 -12.46892,7.18345 -2.20405,0.73682 -4.77038,1.61471 -6.98258,0.89797 z"
       style="fill:#3b5554;fill-opacity:1;fill-rule:evenodd;stroke:#3b5554;stroke-width:0.27829012px;stroke-linecap:butt;stroke-linejoin:miter;stroke-opacity:1" />
    <path
       style="fill:#3b5554;fill-opacity:1;fill-rule:evenodd;stroke:#3b5554;stroke-width:0.2436475px;stroke-linecap:butt;stroke-linejoin:miter;stroke-opacity:1"
       d="m 158.00205,697.66002 c -5.31553,2.01311 -7.35702,8.13353 -12.90587,9.68223 -1.74869,0.48796 -3.80529,0.16612 -5.53108,-0.3725 -10.83567,-3.38148 -21.58483,-9.12873 -27.65546,-17.13001 -2.20482,-2.90603 -4.5127,-7.1503 -2.30463,-10.05455 1.42493,-1.87438 6.91968,0.20937 7.83571,-1.86198 1.37648,-3.11251 -7.54814,-4.92742 -6.91385,-8.19273 0.2716,-1.39811 2.805,-1.69818 4.14831,-2.60665 1.58503,-1.07202 2.75371,-2.61562 4.60925,-3.35162 1.54199,-0.61159 3.40159,-1.07449 5.07017,-0.74469 9.25418,1.82881 13.06362,14.40868 22.58528,14.15088 3.69807,-0.10038 4.64924,-5.45504 8.29662,-5.95829 3.59988,-0.49676 7.52439,1.29266 10.14034,3.35148 3.00592,2.36578 1.9685,7.02615 5.07016,9.30989 1.43644,1.05755 4.8456,0.0206 5.53111,1.4895 0.7529,1.61366 -2.60914,2.81794 -3.22646,4.46876 -0.75674,2.02359 1.32371,4.78484 -0.46093,6.33063 -3.27566,2.83736 -9.94034,-0.15716 -14.28867,1.48965 z"
       id="path6230"
       inkscape:connector-curvature="0"
       sodipodi:nodetypes="aaaaaaaaaaaaaaaaaa" />
    <path
       sodipodi:nodetypes="aaaaaaaaaaaaaaaaaaaa"
       inkscape:connector-curvature="0"
       id="path6234"
       d="m 144.67661,783.68275 c -10.64837,-1.5349 -12.88239,-14.80569 -21.81267,-19.84137 -1.92846,-1.08749 -4.60463,-0.98692 -6.5438,-2.06147 -3.907,-2.16453 -6.6125,-5.54118 -9.65986,-8.50328 -1.10391,-1.07305 -2.62982,-1.99973 -3.1161,-3.34993 -0.77312,-2.14661 -0.55085,-4.68121 0.62321,-6.69969 1.84759,-3.17635 5.12417,-6.74334 9.34829,-7.215 2.44023,-0.27231 4.11053,2.52233 6.54378,2.83449 1.77188,0.22735 4.16583,0.37721 5.29738,-0.773 2.16403,-2.19988 -1.81518,-5.95474 -0.31163,-8.50345 1.6943,-2.87182 5.54027,-5.12629 9.3483,-5.66896 4.27475,-0.60906 9.02162,0.91008 12.46437,3.0922 2.03609,1.29063 1.83743,4.33884 4.05093,5.41124 2.06322,0.9997 5.23865,-0.91158 7.167,0.25773 1.96081,1.18905 1.01281,4.07365 2.49289,5.66895 1.54351,1.66369 5.58215,1.58055 6.23217,3.6075 1.61986,5.05079 -8.39939,8.95268 -8.10182,14.17241 0.18203,3.19293 5.46023,5.07186 5.92058,8.24571 0.63388,4.37021 -1.28599,9.23165 -4.67415,12.62622 -3.66762,3.67455 -9.59269,7.51785 -15.26887,6.6997 z"
       style="fill:#3b5554;fill-opacity:1;fill-rule:evenodd;stroke:#3b5554;stroke-width:0.23567119px;stroke-linecap:butt;stroke-linejoin:miter;stroke-opacity:1" />
    <path
       sodipodi:nodetypes="aaaaaaaaaaaaaaaaaaa"
       inkscape:connector-curvature="0"
       id="path6238"
       d="m 169.04205,871.31833 c -3.56424,-0.0149 -6.42718,-2.62955 -9.36242,-4.32088 -3.0184,-1.73934 -4.78583,-5.40223 -8.39396,-5.94122 -2.47993,-0.37058 -4.59177,2.33267 -7.10251,2.16044 -3.93791,-0.27005 -6.70215,-3.55379 -10.33101,-4.86101 -3.00117,-1.08121 -6.9204,-0.61437 -9.36244,-2.43049 -2.37627,-1.76715 -4.80461,-4.74821 -3.8741,-7.2915 0.89127,-2.43615 6.88624,-1.60722 7.7482,-4.05084 1.07636,-3.05121 -5.08662,-5.4669 -4.84264,-8.64164 0.27005,-3.51382 3.49717,-6.70762 6.77972,-8.91184 2.94676,-1.97875 6.88013,-3.07676 10.65381,-3.24066 3.54486,-0.15401 7.34653,0.55295 10.33097,2.16044 4.50767,2.42797 5.36244,8.29367 10.00816,10.53218 3.2046,1.54409 7.74946,-0.16064 10.97665,1.35027 7.46672,3.49548 17.9771,9.4285 16.46502,16.47326 -0.61333,2.85739 -6.39383,2.44221 -9.03962,4.32089 -1.69137,1.20091 -3.81831,2.49232 -4.19696,4.32089 -0.33113,1.599 2.63639,3.07719 1.93705,4.59094 -1.14553,2.47947 -5.21615,3.79433 -8.39392,3.78077 z"
       style="fill:#3b5554;fill-opacity:1;fill-rule:evenodd;stroke:#3b5554;stroke-width:0.24557438px;stroke-linecap:butt;stroke-linejoin:miter;stroke-opacity:1" />
    <path
       sodipodi:nodetypes="aaaaaaaaaaaaaaaa"
       inkscape:connector-curvature="0"
       id="path6246"
       d="m 66.671884,779.5464 c -2.124609,-0.0234 -3.322324,-3.88502 -5.351641,-3.2872 -2.605763,0.76732 -0.683411,6.06122 -3.148032,7.1719 -4.648747,2.09513 -9.790713,-3.04772 -14.79571,-4.18355 -2.2821,-0.51798 -4.77733,-0.29976 -6.92565,-1.19534 -4.457992,-1.85863 -7.78467,-5.554 -11.647704,-8.3674 -2.847731,-2.07405 -7.034623,-3.16503 -8.499658,-6.27556 -1.245052,-2.64342 -0.711997,-6.06576 0.629584,-8.66623 1.732414,-3.35798 5.063712,-6.32914 8.814484,-7.47091 4.62352,-1.40731 9.818974,2.78232 14.480912,1.49434 2.580562,-0.7131 3.613719,-4.94148 6.29605,-4.78136 4.962142,0.29602 6.807209,6.88633 10.388482,10.16026 3.050618,2.78886 7.509708,4.49205 9.444082,8.06856 0.867999,1.60493 -0.211064,3.76115 0.629613,5.37904 1.608663,3.096 8.257227,3.73959 7.870074,7.17208 -0.341081,3.02365 -4.981596,4.81573 -8.184886,4.78137 z"
       style="fill:#3b5554;fill-opacity:1;fill-rule:evenodd;stroke:#3b5554;stroke-width:0.25509164px;stroke-linecap:butt;stroke-linejoin:miter;stroke-opacity:1" />
    <path
       sodipodi:nodetypes="aaaaaaaaaaaaaaaaaaaa"
       inkscape:connector-curvature="0"
       id="path6248"
       d="m 27.053188,743.68389 c -2.519361,2.13151 -6.455368,3.31741 -9.87484,2.85722 -3.257528,-0.43846 -6.741268,-2.38326 -8.1114896,-5.07951 -0.934353,-1.83842 1.3815676,-4.10401 0.705325,-6.03189 -1.455073,-4.14834 -8.648546,-5.56275 -9.5221873,-9.84136 -0.8606275,-4.21488 3.5351523,-7.96841 4.9374293,-12.06381 1.427675,-4.16957 -0.644881,-10.47696 3.526747,-12.69874 1.9878006,-1.05862 4.4034266,1.80142 6.7007936,1.58735 2.876202,-0.26802 5.02379,-2.64746 7.758836,-3.49216 1.133954,-0.35016 2.354569,-0.8613 3.526748,-0.63494 2.96623,0.5732 5.499125,2.638 7.406149,4.76203 2.416021,2.69094 4.417308,6.06741 4.584759,9.52405 0.08105,1.67166 -2.25617,3.14865 -1.763382,4.76203 0.906043,2.96609 6.56055,3.15096 7.758835,6.03191 0.582974,1.40148 -1.024365,2.97571 -0.705355,4.44439 0.313407,1.44279 3.219996,2.5044 2.468721,3.80963 -1.248437,2.16934 -6.23032,-1.126 -8.111505,0.63494 -1.713073,1.60376 1.704842,5.43413 -0.35267,6.66682 -2.290948,1.37262 -5.25115,-3.56002 -7.75882,-2.53974 -2.645758,1.07654 -1.058372,5.51181 -3.174094,7.30178 z"
       style="fill:#3b5554;fill-opacity:1;fill-rule:evenodd;stroke:#3b5554;stroke-width:0.27829012px;stroke-linecap:butt;stroke-linejoin:miter;stroke-opacity:1" />
    <path
       sodipodi:nodetypes="aaaaaaaaaaaaaaa"
       inkscape:connector-curvature="0"
       id="path6250"
       d="m 47.569683,730.01096 c -0.08387,-1.75961 1.220883,-4.34102 3.174093,-4.44457 2.584449,-0.13608 2.512265,6.21262 4.937397,5.39697 4.186028,-1.40812 -1.674186,-8.22116 -0.352653,-12.06381 1.244753,-3.61943 3.70501,-7.402 7.406165,-9.20659 4.24315,-2.06876 10.278575,-2.80377 14.459614,-0.63493 3.55328,1.84324 4.865228,6.21677 5.642799,9.84152 0.470191,2.19191 -0.985984,4.44887 -0.705356,6.66684 0.378603,2.9923 3.942773,5.64042 3.174078,8.57165 -0.496579,1.89337 -2.929045,2.87664 -4.584789,4.1271 -1.099319,0.8301 -2.738885,1.14258 -3.526732,2.22228 -2.56953,3.52119 1.374613,10.51495 -2.821377,12.38111 -3.629632,1.61438 -7.75424,-2.50507 -10.932897,-4.76203 -2.623664,-1.86283 -4.269352,-4.62911 -6.34814,-6.98415 -3.232696,-3.66259 -9.299483,-6.43799 -9.522202,-11.11139 z"
       style="fill:#3b5554;fill-opacity:1;fill-rule:evenodd;stroke:#3b5554;stroke-width:0.27829012px;stroke-linecap:butt;stroke-linejoin:miter;stroke-opacity:1" />
    <path
       sodipodi:nodetypes="aaaaaaaaaaaaa"
       inkscape:connector-curvature="0"
       id="path6254"
       d="m 244.35931,794.56685 c -1.65744,-4.28973 2.37751,-8.91548 2.06408,-13.41722 -0.1654,-2.37545 -4.11996,-5.28572 -2.06408,-6.92515 2.99698,-2.39012 7.85659,3.87096 11.86847,3.02975 2.59585,-0.54437 3.26451,-3.78881 5.67617,-4.76104 1.40386,-0.56586 3.26118,0.16744 4.64422,-0.43282 10.81892,-4.70108 12.41828,-25.3713 24.25287,-22.93954 3.44415,0.70771 2.93138,5.69681 2.58009,8.65644 -0.75465,6.35747 -6.26427,11.65584 -9.80437,17.31285 -2.39952,3.83454 -4.47408,7.89938 -7.74029,11.25335 -3.77719,3.87866 -8.70743,6.8756 -13.41648,9.95466 -3.12304,2.04218 -5.86747,5.98417 -9.80433,5.6267 -3.99222,-0.36245 -7.0184,-4.15378 -8.25635,-7.35798 z"
       style="fill:#3b5554;fill-opacity:1;fill-rule:evenodd;stroke:#3b5554;stroke-width:0.39305016px;stroke-linecap:butt;stroke-linejoin:miter;stroke-opacity:1" />
    <text
       xml:space="preserve"
       style="font-style:normal;font-variant:normal;font-weight:normal;font-stretch:normal;font-size:12.12014484px;line-height:127.99999714%;font-family:Purisa;-inkscape-font-specification:Purisa;letter-spacing:0px;word-spacing:0px;fill:#fffacd;fill-opacity:1;stroke:none;stroke-width:1px;stroke-linecap:butt;stroke-linejoin:miter;stroke-opacity:1"
       x="171.38023"
       y="561.50439"
       id="text4154"
       sodipodi:linespacing="128%"
       transform="scale(0.97377991,1.0269261)"><tspan
         sodipodi:role="line"
         id="tspan4156"
         x="171.38023"
         y="561.50439"
         dy="0 0 6.8842411"
         dx="0 0 -5.1551018">Home</tspan></text>
    <text
       xml:space="preserve"
       style="font-style:oblique;font-variant:normal;font-weight:bold;font-stretch:normal;font-size:11.25px;line-height:125%;font-family:Purisa;-inkscape-font-specification:'Purisa Bold Oblique';letter-spacing:0px;word-spacing:0px;fill:#ffffff;fill-opacity:1;stroke:none;stroke-width:1px;stroke-linecap:butt;stroke-linejoin:miter;stroke-opacity:1;"
       x="130.97771"
       y="831.67108"
       id="text4195"
       sodipodi:linespacing="125%"
       transform="scale(0.97377991,1.0269261)"><tspan
         sodipodi:role="line"
         id="tspan4197"
         x="130.97771"
         y="831.67108">contacts</tspan></text>
    <text
       xml:space="preserve"
       style="font-style:oblique;font-variant:normal;font-weight:bold;font-stretch:normal;font-size:12.12014484px;line-height:125%;font-family:Purisa;-inkscape-font-specification:'Purisa Bold Oblique';letter-spacing:0px;word-spacing:0px;fill:#ffffff;fill-opacity:1;stroke:none;stroke-width:1px;stroke-linecap:butt;stroke-linejoin:miter;stroke-opacity:1"
       x="118.53644"
       y="735.69611"
       id="text4199"
       sodipodi:linespacing="125%"
       transform="scale(0.97377991,1.0269261)"><tspan
         sodipodi:role="line"
         id="tspan4201"
         x="118.53644"
         y="735.69611">about</tspan></text>
    <text
       sodipodi:linespacing="125%"
       id="text4203"
       y="708.42303"
       x="2.4241459"
       style="font-style:oblique;font-variant:normal;font-weight:bold;font-stretch:normal;font-size:12.12014484px;line-height:125%;font-family:Purisa;-inkscape-font-specification:'Purisa Bold Oblique';letter-spacing:0px;word-spacing:0px;fill:#ffffff;fill-opacity:1;stroke:none;stroke-width:1px;stroke-linecap:butt;stroke-linejoin:miter;stroke-opacity:1"
       xml:space="preserve"
       transform="scale(0.97377991,1.0269261)"><tspan
         y="708.42303"
         x="2.4241459"
         id="tspan4205"
         sodipodi:role="line">work</tspan></text>
    <text
       xml:space="preserve"
       style="font-style:normal;font-variant:normal;font-weight:normal;font-stretch:normal;font-size:8.08009624px;line-height:125%;font-family:Purisa;-inkscape-font-specification:Purisa;letter-spacing:0px;word-spacing:0px;fill:#ffffff;fill-opacity:1;stroke:none;stroke-width:1px;stroke-linecap:butt;stroke-linejoin:miter;stroke-opacity:1"
       x="57.926632"
       y="714.54456"
       id="text4230"
       sodipodi:linespacing="125%"
       transform="scale(0.97377991,1.0269261)"><tspan
         sodipodi:role="line"
         id="tspan4232"
         x="57.926632"
         y="714.54456">GitHub</tspan></text>
    <text
       xml:space="preserve"
       style="font-style:normal;font-variant:normal;font-weight:normal;font-stretch:normal;font-size:8.08009624px;line-height:125%;font-family:Purisa;-inkscape-font-specification:Purisa;letter-spacing:0px;word-spacing:0px;fill:#ffffff;fill-opacity:1;stroke:none;stroke-width:1px;stroke-linecap:butt;stroke-linejoin:miter;stroke-opacity:1"
       x="27.726749"
       y="743.112"
       id="text4234"
       sodipodi:linespacing="125%"
       transform="scale(0.97377991,1.0269261)"><tspan
         sodipodi:role="line"
         id="tspan4236"
         x="27.726749"
         y="743.112"
         dy="0 0 0 0 0 0 10.471806"
         dx="0 0 0 0 0 0 -8.9527464">LinkedIn</tspan></text>
    <text
       xml:space="preserve"
       style="font-style:normal;font-variant:normal;font-weight:bold;font-stretch:normal;font-size:11.25px;line-height:125%;font-family:Purisa;-inkscape-font-specification:'Purisa Bold';letter-spacing:0px;word-spacing:0px;fill:#ffffff;fill-opacity:1;stroke:none;stroke-width:1px;stroke-linecap:butt;stroke-linejoin:miter;stroke-opacity:1"
       x="236.53255"
       y="615.93976"
       id="text4238"
       sodipodi:linespacing="125%"
       transform="scale(0.97377991,1.0269261)"><tspan
         sodipodi:role="line"
         id="tspan4240"
         x="236.53255"
         y="615.93976">assets</tspan></text>
    <text
       xml:space="preserve"
       style="font-style:oblique;font-variant:normal;font-weight:bold;font-stretch:normal;font-size:12.5px;line-height:125%;font-family:Purisa;-inkscape-font-specification:'Purisa Bold Oblique';letter-spacing:0px;word-spacing:0px;fill:#ffffff;fill-opacity:0.94117647;stroke:none;stroke-width:1px;stroke-linecap:butt;stroke-linejoin:miter;stroke-opacity:1;"
       x="125.74236"
       y="675.26733"
       id="text4242"
       sodipodi:linespacing="125%"
       transform="scale(0.97377991,1.0269261)"><tspan
         sodipodi:role="line"
         id="tspan4244"
         x="125.74236"
         y="675.26733">skills</tspan></text>
    <text
       xml:space="preserve"
       style="font-style:normal;font-variant:normal;font-weight:normal;font-stretch:normal;font-size:8.08009624px;line-height:125%;font-family:Purisa;-inkscape-font-specification:Purisa;letter-spacing:0px;word-spacing:0px;fill:#ffffff;fill-opacity:1;stroke:none;stroke-width:1px;stroke-linecap:butt;stroke-linejoin:miter;stroke-opacity:1"
       x="253.81778"
       y="765.14984"
       id="text4246"
       sodipodi:linespacing="125%"
       transform="scale(0.97377991,1.0269261)"><tspan
         sodipodi:role="line"
         id="tspan4248"
         x="253.81778"
         y="765.14984">license</tspan></text>
    <text
       xml:space="preserve"
       style="font-style:normal;font-variant:normal;font-weight:normal;font-stretch:normal;font-size:16.16019249px;line-height:125%;font-family:Purisa;-inkscape-font-specification:Purisa;letter-spacing:0px;word-spacing:0px;fill:#ffffff;fill-opacity:1;stroke:none;stroke-width:1px;stroke-linecap:butt;stroke-linejoin:miter;stroke-opacity:1"
       x="278.30414"
       y="691.28253"
       id="text4250"
       sodipodi:linespacing="125%"
       transform="scale(0.97377991,1.0269261)"><tspan
         sodipodi:role="line"
         id="tspan4252"
         x="278.30414"
         y="691.28253">CV</tspan></text>
  </g>
</svg>
