<?xml version="1.0" encoding="UTF-8" standalone="no"?>
<!-- Created with Inkscape (http://www.inkscape.org/) -->

<svg
   xmlns:dc="http://purl.org/dc/elements/1.1/"
   xmlns:cc="http://creativecommons.org/ns#"
   xmlns:rdf="http://www.w3.org/1999/02/22-rdf-syntax-ns#"
   xmlns:svg="http://www.w3.org/2000/svg"
   xmlns="http://www.w3.org/2000/svg"
   xmlns:sodipodi="http://sodipodi.sourceforge.net/DTD/sodipodi-0.dtd"
   xmlns:inkscape="http://www.inkscape.org/namespaces/inkscape"
   width="200"
   height="300"
   viewBox="0 0 200 300"
   id="svg6296"
   version="1.1"
   inkscape:version="0.91 r13725"
   sodipodi:docname="tree-menu-items.svg">
  <defs
     id="defs6298" />
  <sodipodi:namedview
     id="base"
     pagecolor="#ffffff"
     bordercolor="#666666"
     borderopacity="1.0"
     inkscape:pageopacity="0.0"
     inkscape:pageshadow="2"
     inkscape:zoom="3.959798"
     inkscape:cx="112.84918"
     inkscape:cy="201.93367"
     inkscape:document-units="px"
     inkscape:current-layer="layer1"
     showgrid="false"
     units="px"
     inkscape:window-width="1391"
     inkscape:window-height="876"
     inkscape:window-x="49"
     inkscape:window-y="24"
     inkscape:window-maximized="1" />
  <metadata
     id="metadata6301">
    <rdf:RDF>
      <cc:Work
         rdf:about="">
        <dc:format>image/svg+xml</dc:format>
        <dc:type
           rdf:resource="http://purl.org/dc/dcmitype/StillImage" />
        <dc:title></dc:title>
      </cc:Work>
    </rdf:RDF>
  </metadata>
  <g
     inkscape:label="Layer 1"
     inkscape:groupmode="layer"
     id="layer1"
     transform="translate(0,-752.36216)">
    <path
       sodipodi:nodetypes="cccsczzssczcccczzacasscaaccaasacczsacsszacc"
       inkscape:connector-curvature="0"
       id="path4756"
       d="m 145.84469,1052.1882 c 0,0 -2.18246,-42.7778 -0.90472,-63.32877 -0.21545,-6.61191 -0.51342,-8.99348 -1.13652,-11.89354 -2.45566,-11.6203 1.40654,-30.92627 -1.16777,-32.0656 -10.18409,-4.50724 -20.94128,-4.5557 -41.20104,-16.6009 0,0 20.82406,8.55633 26.85195,10.19664 6.0279,1.64032 13.04475,4.06646 14.61298,2.42046 1.56823,-1.6459 1.51095,-12.3151 1.04834,-13.2831 -1.55352,-3.2507 -26.52729,-23.1812 -32.06105,-30.6801 -6.41919,-8.6988 -19.658575,-30.3679 -19.658575,-30.3679 0,0 17.384435,26.1072 24.894745,32.8873 7.51028,6.78 20.68732,19.0863 26.94431,22.972 1.03085,-8.02969 -2.10458,-31.26013 -8.47309,-32.50469 -3.37908,-2.27467 -78.339366,-4.64291 -104.915455,-28.88491 29.485796,17.74419 75.558525,26.95925 104.566195,21.1243 3.84252,-2.1386 -1.61033,-10.7772 -2.06762,-17.9188 -0.45737,-7.1416 2.92091,-20.0267 -0.004,-22.4455 -2.92483,-2.4188 -12.89338,-0.8346 -18.78485,-2.8845 -3.91597,-1.3626 -10.49817,-6.08 -10.49817,-6.08 0,0 7.05425,3.6687 11.0141,4.4243 6.32286,1.2064 19.43669,2.3504 19.43669,0 0,0 2.26401,-14.38602 0,-21.0151 -4.7835,-14.0062 -6.76632,-25.89866 -7.77467,-41.4772 0,0 1.74363,17.1988 4.53127,25.4393 1.73389,5.1255 2.29583,12.9074 7.49679,14.6698 8.56591,2.90265 24.49146,-11.6778 24.49146,-11.6778 -4.27697,8.00766 -19.15858,13.34785 -22.24092,17.7773 -3.40154,5.33912 -1.01375,12.6217 -1.45274,18.9362 -0.28691,4.1269 -0.96339,8.2541 -0.77194,12.3851 0.31625,6.8237 -1.09642,14.6007 3.16447,20.3084 2.33673,3.1302 8.90018,0.75292 13.02485,-0.6179 10.45337,-3.47413 22.55344,-8.32994 27.38018,-18.5043 -2.33199,8.89954 -12.66028,15.01923 -23.06121,18.8185 -6.77221,2.4364 -12.78813,5.17469 -14.59487,7.68816 -1.80673,2.51347 3.53665,22.45134 5.61661,25.40134 1.9484,2.7634 12.28814,-2.93897 17.59022,-6.18134 3.06322,-1.87324 7.80942,-7.41916 7.80942,-7.41916 -2.53391,9.0719 -23.68494,19.19642 -23.92291,20.98152 -0.23797,1.7851 -3.7997,42.19098 -0.95684,62.19138 0.66432,4.6737 1.73477,6.3303 2.58367,13.829 0.84893,7.4987 -0.577,17.85091 -0.12404,26.76391 0.62028,12.2054 3.88734,36.4999 3.88734,36.4999 z"
       style="fill:#2c3c4c;fill-opacity:1;fill-rule:evenodd;stroke:#2c3c4c;stroke-width:3;stroke-linecap:butt;stroke-linejoin:miter;stroke-miterlimit:4;stroke-dasharray:none;stroke-opacity:1" />
    <path
       sodipodi:nodetypes="aaaaaaaaaaaaa"
       inkscape:connector-curvature="0"
       id="path6210"
       d="m 156.84962,804.70029 c -3.42666,-1.7721 -4.43986,-6.1212 -4.41907,-9.5411 0.013,-2.1563 0.96867,-4.5608 2.8594,-5.9909 0.73941,-0.5592 2.01072,-0.2339 2.85939,-0.6656 2.26377,-1.1516 3.41313,-3.4634 5.45884,-4.8815 2.29581,-1.5914 4.61562,-4.3795 7.53839,-3.9939 2.36847,0.3124 3.75483,2.7721 4.67902,4.6596 1.20706,2.4652 -0.5604,5.5733 0.77984,7.9878 1.60047,2.8834 7.78017,3.4748 8.05828,6.6566 0.27594,3.1569 -3.43369,6.1416 -6.75857,7.5441 -3.41795,1.4417 -7.74693,0.8163 -11.43756,0 -1.72716,-0.382 -2.93076,-1.9146 -4.67902,-2.2189 -1.62203,-0.2822 -3.5231,1.176 -4.93894,0.4438 z"
       style="fill:#3b5554;fill-opacity:1;fill-rule:evenodd;stroke:#000000;stroke-width:0.17220718px;stroke-linecap:butt;stroke-linejoin:miter;stroke-opacity:1" />
    <path
       sodipodi:nodetypes="aaaaaaaaaaaa"
       inkscape:connector-curvature="0"
       id="path6222"
       d="m 176.5275,850.12229 c -0.89451,-2.3745 1.65929,-4.8189 1.90166,-7.3045 0.16672,-1.7099 -1.16832,-3.586 -0.31696,-5.1402 1.78985,-3.2677 5.91748,-6.4062 10.14218,-6.4929 3.95463,-0.081 7.90476,2.7293 9.82523,5.6813 2.66904,4.1026 1.9993,9.5222 0.63388,14.0679 -0.45899,1.5281 -1.10111,3.5545 -2.85249,4.0581 -2.15663,0.6201 -4.06411,-2.1073 -6.33885,-2.1643 -1.00182,-0.025 -2.4308,0.035 -2.85248,0.8116 -0.71814,1.3217 3.19237,3.1048 1.90164,4.0581 -1.75404,1.2954 -4.14412,-1.8138 -6.02191,-2.976 -2.18061,-1.3495 -5.19738,-2.4103 -6.0219,-4.5991 z"
       style="fill:#3b5554;fill-opacity:1;fill-rule:evenodd;stroke:#000000;stroke-width:0.17220718px;stroke-linecap:butt;stroke-linejoin:miter;stroke-opacity:1" />
    <path
       sodipodi:nodetypes="aaaaaaaaaaaaaa"
       inkscape:connector-curvature="0"
       id="path6224"
       d="m 123.28109,779.51199 c -4.4332,-1.3623 -7.55979,-5.266 -9.5083,-8.9278 -1.14348,-2.1489 -0.40024,-4.721 -0.95083,-7.034 -0.37276,-1.566 -1.83904,-3.016 -1.5847,-4.5991 0.4062,-2.5286 1.76415,-6.4793 4.75414,-6.4929 3.13575,-0.014 2.03851,6.0823 5.07108,6.7634 1.96529,0.4414 3.35814,-2.3528 5.38804,-2.4348 3.31202,-0.1338 6.73073,1.3494 9.19134,3.2464 1.15758,0.8925 0.7092,3.1811 2.2186,3.517 1.33291,0.2967 2.17532,-2.2544 3.48638,-1.8937 1.08299,0.2979 1.34977,1.7366 1.26776,2.7053 -0.33439,3.9494 -3.76639,7.4189 -6.97274,10.2805 -2.16745,1.9343 -4.98397,3.3967 -7.92358,4.3286 -1.4006,0.444 -3.03142,0.973 -4.43719,0.5411 z"
       style="fill:#3b5554;fill-opacity:1;fill-rule:evenodd;stroke:#000000;stroke-width:0.17220718px;stroke-linecap:butt;stroke-linejoin:miter;stroke-opacity:1" />
    <path
       style="fill:#3b5554;fill-opacity:1;fill-rule:evenodd;stroke:#000000;stroke-width:0.15077017px;stroke-linecap:butt;stroke-linejoin:miter;stroke-opacity:1"
       d="m 109.76408,839.92803 c -3.37785,1.21306 -4.67514,4.9011 -8.20125,5.83431 -1.11123,0.29404 -2.418129,0.10011 -3.514823,-0.22445 -6.8857,-2.03761 -13.716432,-5.50079 -17.574109,-10.32219 -1.40109,-1.75112 -2.867675,-4.30863 -1.464514,-6.05867 0.905497,-1.12946 4.397221,0.12616 4.979332,-1.12199 0.874705,-1.87554 -4.796592,-2.96916 -4.393525,-4.93677 0.172594,-0.84247 1.782486,-1.02329 2.636111,-1.57072 1.007238,-0.64597 1.749892,-1.57611 2.92902,-2.01961 0.979892,-0.36853 2.161599,-0.64747 3.221928,-0.44873 5.880727,1.102 8.301494,8.68237 14.35219,8.52702 2.35,-0.0605 2.95444,-3.28709 5.27222,-3.59034 2.28761,-0.29934 4.7815,0.77893 6.44385,2.01953 1.91016,1.42557 1.25091,4.23382 3.22192,5.60995 0.91281,0.63726 3.07921,0.0124 3.51483,0.89754 0.47844,0.97236 -1.65802,1.69804 -2.05031,2.69279 -0.48088,1.21937 0.84118,2.88324 -0.2929,3.8147 -2.08157,1.70974 -6.31675,-0.0947 -9.07997,0.89763 z"
       id="path6230"
       inkscape:connector-curvature="0"
       sodipodi:nodetypes="aaaaaaaaaaaaaaaaaa" />
    <path
       sodipodi:nodetypes="aaaaaaaaaaaaaaaaaaaa"
       inkscape:connector-curvature="0"
       id="path6234"
       d="m 101.29621,891.76356 c -6.766687,-0.9249 -8.186327,-8.9216 -13.861217,-11.956 -1.22548,-0.6553 -2.92609,-0.5947 -4.15837,-1.2422 -2.48277,-1.3043 -4.20202,-3.339 -6.13852,-5.1239 -0.70149,-0.6466 -1.67116,-1.205 -1.98018,-2.0186 -0.49129,-1.2935 -0.35004,-2.8208 0.39603,-4.0371 1.17408,-1.914 3.25624,-4.0634 5.94053,-4.3476 1.55068,-0.1641 2.6121,1.5199 4.15835,1.708 1.12597,0.137 2.64725,0.2273 3.36631,-0.4658 1.37517,-1.3256 -1.15349,-3.5882 -0.19803,-5.124 1.07666,-1.7305 3.52065,-3.089 5.94053,-3.416 2.71646,-0.367 5.732937,0.5484 7.920687,1.8633 1.29387,0.7777 1.16763,2.6145 2.57423,3.2607 1.31111,0.6024 3.32899,-0.5493 4.55439,0.1553 1.24603,0.7165 0.64361,2.4547 1.58415,3.416 0.98085,1.0025 3.54727,0.9524 3.96033,2.1738 1.02937,3.0435 -5.33753,5.3947 -5.14843,8.54 0.11567,1.924 3.46979,3.0562 3.76233,4.9687 0.40281,2.6334 -0.8172,5.5628 -2.97027,7.6083 -2.33065,2.2142 -6.09583,4.5301 -9.70285,4.0371 z"
       style="fill:#3b5554;fill-opacity:1;fill-rule:evenodd;stroke:#000000;stroke-width:0.1458344px;stroke-linecap:butt;stroke-linejoin:miter;stroke-opacity:1" />
    <path
       sodipodi:nodetypes="aaaaaaaaaaaaaaaaaaa"
       inkscape:connector-curvature="0"
       id="path6238"
       d="m 116.77963,944.57095 c -2.26496,-0.009 -4.08426,-1.58451 -5.94951,-2.60367 -1.91809,-1.04809 -3.04123,-3.25528 -5.33408,-3.58006 -1.57591,-0.2233 -2.91791,1.40562 -4.51341,1.30184 -2.5024,-0.16273 -4.258981,-2.14144 -6.565003,-2.92914 -1.907148,-0.65152 -4.397681,-0.37021 -5.949521,-1.46457 -1.510041,-1.06485 -3.053165,-2.86117 -2.461862,-4.39371 0.566376,-1.46797 4.375977,-0.96847 4.923725,-2.44095 0.683989,-1.8386 -3.232377,-3.29424 -3.077333,-5.20727 0.171604,-2.11736 2.222335,-4.04188 4.308282,-5.37009 1.872574,-1.19236 4.372096,-1.854 6.770136,-1.95276 2.252646,-0.0928 4.668476,0.3332 6.564986,1.30184 2.86448,1.46304 3.40765,4.99759 6.35985,6.34647 2.03642,0.93044 4.92453,-0.0968 6.9753,0.81365 4.74485,2.1063 11.42384,5.68142 10.46296,9.92644 -0.38974,1.72181 -4.06306,1.47163 -5.74437,2.60368 -1.07481,0.72365 -2.42641,1.50183 -2.66703,2.60368 -0.21042,0.96353 1.67534,1.85425 1.23093,2.76641 -0.72794,1.49408 -3.31468,2.28638 -5.33405,2.27821 z"
       style="fill:#3b5554;fill-opacity:1;fill-rule:evenodd;stroke:#000000;stroke-width:0.15196253px;stroke-linecap:butt;stroke-linejoin:miter;stroke-opacity:1" />
    <path
       sodipodi:nodetypes="aaaaaaaaaaaaaaaa"
       inkscape:connector-curvature="0"
       id="path6246"
       d="m 51.726816,889.27108 c -1.350118,-0.0141 -2.111225,-2.34104 -3.400788,-1.9808 -1.655875,0.46237 -0.434285,3.65237 -2.000469,4.32164 -2.954123,1.26248 -6.22167,-1.83649 -9.402178,-2.52092 -1.450198,-0.31213 -3.035833,-0.18063 -4.401018,-0.72029 -2.832905,-1.11997 -4.946897,-3.34672 -7.401726,-5.04202 -1.809637,-1.24978 -4.470267,-1.90719 -5.401248,-3.78152 -0.791189,-1.59288 -0.45245,-3.6551 0.400079,-5.2221 1.100891,-2.02344 3.21782,-3.8138 5.60131,-4.50181 2.938092,-0.84802 6.239629,1.67657 9.202134,0.90046 1.639861,-0.42971 2.296398,-2.97764 4.000929,-2.88116 3.153275,0.17838 4.325753,4.14957 6.601532,6.12237 1.938566,1.68051 4.772168,2.70682 6.001398,4.86195 0.551584,0.9671 -0.134124,2.26639 0.400098,3.2413 1.022251,1.86558 5.247191,2.2534 5.001168,4.32174 -0.216745,1.82199 -3.165637,2.90186 -5.201221,2.88116 z"
       style="fill:#3b5554;fill-opacity:1;fill-rule:evenodd;stroke:#000000;stroke-width:0.15785185px;stroke-linecap:butt;stroke-linejoin:miter;stroke-opacity:1" />
    <path
       sodipodi:nodetypes="aaaaaaaaaaaaaaaaaaaa"
       inkscape:connector-curvature="0"
       id="path6248"
       d="m 26.550463,867.66107 c -1.60097,1.2844 -4.10217,1.999 -6.27513,1.7217 -2.07005,-0.2642 -4.28385,-1.4361 -5.15458,-3.0608 -0.59375,-1.1078 0.87794,-2.473 0.44821,-3.6347 -0.92465,-2.4997 -5.495861,-3.352 -6.0510306,-5.9302 -0.5469,-2.5398 2.2464706,-4.8016 3.1375706,-7.2694 0.90724,-2.5125 -0.4098,-6.3132 2.24113,-7.652 1.26318,-0.6379 2.79823,1.0855 4.25813,0.9565 1.82773,-0.1615 3.19245,-1.5953 4.93048,-2.1043 0.72059,-0.211 1.49625,-0.519 2.24113,-0.3826 1.88494,0.3454 3.49451,1.5896 4.70636,2.8695 1.5353,1.6215 2.80705,3.6561 2.91346,5.739 0.0515,1.0073 -1.43372,1.8973 -1.12057,2.8695 0.57576,1.7873 4.16901,1.8987 4.93048,3.6347 0.37046,0.8445 -0.65095,1.7931 -0.44823,2.6781 0.19916,0.8694 2.0462,1.5091 1.56879,2.2956 -0.79334,1.3072 -3.95916,-0.6785 -5.15459,0.3826 -1.0886,0.9664 1.08337,3.2745 -0.22411,4.0173 -1.45582,0.8271 -3.33693,-2.1452 -4.93047,-1.5304 -1.68129,0.6487 -0.67256,3.3213 -2.01703,4.3999 z"
       style="fill:#3b5554;fill-opacity:1;fill-rule:evenodd;stroke:#000000;stroke-width:0.17220718px;stroke-linecap:butt;stroke-linejoin:miter;stroke-opacity:1" />
    <path
       sodipodi:nodetypes="aaaaaaaaaaaaaaa"
       inkscape:connector-curvature="0"
       id="path6250"
       d="m 39.588008,859.42204 c -0.0533,-1.0603 0.77583,-2.6158 2.01703,-2.6782 1.64233,-0.082 1.59646,3.7436 3.13755,3.2521 2.66008,-0.8485 -1.06389,-4.9539 -0.2241,-7.2694 0.791,-2.181 2.35441,-4.4603 4.70637,-5.5477 2.69638,-1.2466 6.53169,-1.6895 9.1886,-0.3826 2.25799,1.1107 3.09169,3.7461 3.58581,5.9303 0.29879,1.3208 -0.62656,2.6808 -0.44823,4.0173 0.24059,1.8031 2.5055,3.3988 2.01702,5.1651 -0.31556,1.1409 -1.86131,1.7334 -2.91348,2.4869 -0.69858,0.5002 -1.74047,0.6885 -2.24112,1.3391 -1.63285,2.1218 0.87352,6.3361 -1.79289,7.4606 -2.30651,0.9728 -4.92756,-1.5095 -6.94749,-2.8695 -1.66725,-1.1225 -2.71303,-2.7894 -4.03403,-4.2085 -2.05427,-2.207 -5.90951,-3.8794 -6.05104,-6.6955 z"
       style="fill:#3b5554;fill-opacity:1;fill-rule:evenodd;stroke:#000000;stroke-width:0.17220718px;stroke-linecap:butt;stroke-linejoin:miter;stroke-opacity:1" />
    <path
       sodipodi:nodetypes="aaaaaaaaaaaaa"
       inkscape:connector-curvature="0"
       id="path6254"
       d="m 164.64122,898.32209 c -1.05325,-2.5849 1.51083,-5.37228 1.31166,-8.08494 -0.10511,-1.43139 -2.6181,-3.18506 -1.31166,-4.17295 1.90448,-1.44024 4.9926,2.33256 7.54202,1.82567 1.64958,-0.32803 2.07448,-2.28307 3.60701,-2.86891 0.89211,-0.34098 2.07237,0.1009 2.95125,-0.26081 6.87506,-2.83277 7.8914,-15.28822 15.41189,-13.82289 2.18864,0.42645 1.86279,3.43278 1.63955,5.21619 -0.47955,3.83088 -3.98073,7.02357 -6.23034,10.43237 -1.52482,2.31061 -2.84313,4.76 -4.9187,6.78104 -2.40027,2.3372 -5.53328,4.14309 -8.52572,5.99847 -1.98459,1.23057 -3.72858,3.60594 -6.23033,3.39053 -2.53691,-0.21841 -4.45996,-2.50298 -5.24663,-4.43377 z"
       style="fill:#3b5554;fill-opacity:1;fill-rule:evenodd;stroke:#000000;stroke-width:0.24322121px;stroke-linecap:butt;stroke-linejoin:miter;stroke-opacity:1" />
    <text
       xml:space="preserve"
       style="font-style:normal;font-variant:normal;font-weight:500;font-stretch:normal;font-size:12.5px;line-height:125%;font-family:'Astoria Deco';-inkscape-font-specification:'Astoria Deco Medium';letter-spacing:0px;word-spacing:0px;fill:#ffffff;fill-opacity:1;stroke:none;stroke-width:1px;stroke-linecap:butt;stroke-linejoin:miter;stroke-opacity:1;"
       x="202.67461"
       y="650.1557"
       id="text6889"
       sodipodi:linespacing="125%"
       transform="scale(0.80938937,1.2354993)"><tspan
         sodipodi:role="line"
         id="tspan6891"
         x="202.67461"
         y="650.1557">work</tspan></text>
    <text
       xml:space="preserve"
       style="font-style:normal;font-variant:normal;font-weight:normal;font-stretch:normal;font-size:7.5px;line-height:127.99999714%;font-family:'FunZone Two';-inkscape-font-specification:'FunZone Two';letter-spacing:0px;word-spacing:0px;fill:#fffacd;fill-opacity:1;stroke:none;stroke-width:1px;stroke-linecap:butt;stroke-linejoin:miter;stroke-opacity:1"
       x="115.40993"
       y="766.99396"
       id="text4154"
       sodipodi:linespacing="128%"><tspan
         sodipodi:role="line"
         id="tspan4156"
         x="115.40993"
         y="766.99396"
         dy="0 0 4.2599993"
         dx="0 0 -3.1900001">Home</tspan></text>
    <path
       style="fill:none;fill-rule:evenodd;stroke:#000000;stroke-width:0.5;stroke-linecap:round;stroke-linejoin:miter;stroke-miterlimit:4;stroke-dasharray:none;stroke-opacity:1"
       d="m 71.109125,777.60067 -37.414921,0"
       id="path4158"
       inkscape:connector-curvature="0" />
    <path
       style="opacity:1;fill:none;fill-opacity:1;stroke:#2c3c4c;stroke-width:1;stroke-linecap:round;stroke-linejoin:round;stroke-miterlimit:4;stroke-dasharray:none;stroke-dashoffset:0;stroke-opacity:1"
       id="path4160"
       sodipodi:type="arc"
       sodipodi:cx="777.87054"
       sodipodi:cy="-70.439651"
       sodipodi:rx="3.1921797"
       sodipodi:ry="3.1921797"
       sodipodi:start="3.1799899"
       sodipodi:end="0"
       d="m 774.68072,-70.562192 a 3.1921797,3.1921797 0 0 1 3.25111,-3.069051 3.1921797,3.1921797 0 0 1 3.13089,3.191592"
       sodipodi:open="true"
       transform="matrix(0,1,-1,0,0,0)" />
    <path
       inkscape:connector-curvature="0"
       id="path4168"
       d="m 65.154838,795.78341 -52.527931,0"
       style="fill:none;fill-rule:evenodd;stroke:#000000;stroke-width:1px;stroke-linecap:round;stroke-linejoin:miter;stroke-opacity:1" />
    <path
       transform="matrix(0,1,-1,0,0,0)"
       sodipodi:open="true"
       d="m 791.85333,-65.511426 a 3.1921797,3.1921797 0 0 1 3.2511,-3.069051 3.1921797,3.1921797 0 0 1 3.1309,3.191592"
       sodipodi:end="0"
       sodipodi:start="3.1799899"
       sodipodi:ry="3.1921797"
       sodipodi:rx="3.1921797"
       sodipodi:cy="-65.388885"
       sodipodi:cx="795.04315"
       sodipodi:type="arc"
       id="path4170"
       style="opacity:1;fill:none;fill-opacity:1;stroke:#2c3c4c;stroke-width:1;stroke-linecap:round;stroke-linejoin:round;stroke-miterlimit:4;stroke-dasharray:none;stroke-dashoffset:0;stroke-opacity:1" />
    <text
       xml:space="preserve"
       style="font-style:normal;font-variant:normal;font-weight:normal;font-stretch:normal;font-size:7.5px;line-height:125%;font-family:'FunZone Two';-inkscape-font-specification:'FunZone Two';letter-spacing:0px;word-spacing:0px;fill:#ffffff;fill-opacity:1;stroke:none;stroke-width:1px;stroke-linecap:butt;stroke-linejoin:miter;stroke-opacity:1"
       x="83.08506"
       y="833.91663"
       id="text4195"
       sodipodi:linespacing="125%"><tspan
         sodipodi:role="line"
         id="tspan4197"
         x="83.08506"
         y="833.91663">contacts</tspan></text>
    <text
       xml:space="preserve"
       style="font-style:normal;font-variant:normal;font-weight:bold;font-stretch:normal;font-size:7.5px;line-height:125%;font-family:Purisa;-inkscape-font-specification:'Purisa Bold';letter-spacing:0px;word-spacing:0px;fill:#ffffff;fill-opacity:1;stroke:none;stroke-width:1px;stroke-linecap:butt;stroke-linejoin:miter;stroke-opacity:1"
       x="84.852814"
       y="874.07025"
       id="text4199"
       sodipodi:linespacing="125%"><tspan
         sodipodi:role="line"
         id="tspan4201"
         x="84.852814"
         y="874.07025">about</tspan></text>
    <text
       sodipodi:linespacing="125%"
       id="text4203"
       y="857.90784"
       x="10.85914"
       style="font-style:oblique;font-variant:normal;font-weight:bold;font-stretch:normal;font-size:7.5px;line-height:125%;font-family:Purisa;-inkscape-font-specification:'Purisa Bold Oblique';letter-spacing:0px;word-spacing:0px;fill:#ffffff;fill-opacity:1;stroke:none;stroke-width:1px;stroke-linecap:butt;stroke-linejoin:miter;stroke-opacity:1;"
       xml:space="preserve"><tspan
         y="857.90784"
         x="10.85914"
         id="tspan4205"
         sodipodi:role="line">work</tspan></text>
  </g>
</svg>
