<svg xmlns="http://www.w3.org/2000/svg" preserveAspectRatio="xMidYMid" viewBox="0 0 50 50">
  <path fill="#fff" d="M0 12.4979146L25-.0000011l25 12.4979157v25.0041693L25 50 0 37.502084z"/>
  <path d="M45.537736 36.634983L25.830189 46.49825v-7.670503l12.283018-5.977989 7.424529 3.785225zm1.349057-1.075537V14.94914l-7.207547 3.676839v13.256629l7.207547 3.676838zM4.3867924 36.634983L24.09434 46.489911V38.81941l-12.283019-5.969652-7.4245286 3.785225zm-1.3490567-1.075537V14.94914l7.2075473 3.676839v13.256629l-7.2075473 3.676838zm.8396229-21.944306L24.09434 3.5100872v7.4203768l-12.952831 6.294814-.103773.05003-7.1603774-3.660163zm42.1603774 0L25.830189 3.5100872v7.4203768l12.943395 6.303152.103773.05002 7.160379-3.6685z" fill="#2c3c4c"/>
  <path d="M24.09434 37.076871l-12.113208-5.894614V19.518092l12.113208 6.178089v11.38069zm1.735849 0l12.113207-5.886277V19.518092l-12.113207 6.178089v11.38069zM12.792453 18.167416l12.169811-5.911289 12.160377 5.911289-12.160377 6.203102-12.169811-6.203102z" fill="#1c78c0"/>
</svg>
