<svg xmlns="http://www.w3.org/2000/svg" viewBox="0 0 47 49.000001">
  <path d="M27.221503 45.8849c-2.535033 2.1452-6.495531 3.3387-9.936273 2.8755-3.277793-.4412-6.783206-2.3984-8.1619523-5.1119-.9401658-1.8502 1.3901623-4.1303.7097129-6.0704-1.4641253-4.1749-8.7023507-5.5983-9.5814279-9.9043-.8659811-4.2418 3.5571461-8.0192 4.968147-12.1407 1.436557-4.1963-.6488929-10.544 3.5486879-12.78 2.0001674-1.0653 4.4308214 1.813 6.7424804 1.5976 2.894095-.2698 5.055045-2.6644 7.807111-3.5146 1.141004-.3524 2.369208-.8668 3.548681-.6389 2.984683.5768 5.533341 2.6549 7.452225 4.7924 2.431051 2.7081 4.444791 6.1061 4.613283 9.5849.0815 1.6823-2.270206 3.1687-1.774351 4.7925.911677 2.985 6.601365 3.1709 7.807101 6.0704.586607 1.4105-1.030734 2.9947-.709739 4.4728.31536 1.452 3.240033 2.5204 2.484078 3.8339-1.256206 2.1832-6.26908-1.1331-8.161963.6389-1.723738 1.6141 1.715446 5.4689-.354865 6.7095-2.305201 1.3814-5.283818-3.5828-7.807089-2.5559-2.66222 1.0834-1.064964 5.547-3.193847 7.3483z" fill="#3b5554" fill-rule="evenodd" stroke="#3b5554" stroke-width=".2800444"/>
</svg>
